{
	"patcher" : 	{
		"fileversion" : 1,
		"appversion" : 		{
			"major" : 8,
			"minor" : 6,
			"revision" : 1,
			"architecture" : "x64",
			"modernui" : 1
		}
,
		"classnamespace" : "box",
		"rect" : [ 34.0, 100.0, 1660.0, 983.0 ],
		"bglocked" : 0,
		"openinpresentation" : 1,
		"default_fontsize" : 12.0,
		"default_fontface" : 0,
		"default_fontname" : "Arial",
		"gridonopen" : 1,
		"gridsize" : [ 15.0, 15.0 ],
		"gridsnaponopen" : 1,
		"objectsnaponopen" : 1,
		"statusbarvisible" : 2,
		"toolbarvisible" : 1,
		"lefttoolbarpinned" : 0,
		"toptoolbarpinned" : 0,
		"righttoolbarpinned" : 0,
		"bottomtoolbarpinned" : 0,
		"toolbars_unpinned_last_save" : 0,
		"tallnewobj" : 0,
		"boxanimatetime" : 200,
		"enablehscroll" : 1,
		"enablevscroll" : 1,
		"devicewidth" : 0.0,
		"description" : "",
		"digest" : "",
		"tags" : "",
		"style" : "white",
		"subpatcher_template" : "Default_white",
		"assistshowspatchername" : 0,
		"boxes" : [ 			{
				"box" : 				{
					"id" : "obj-28",
					"maxclass" : "newobj",
					"numinlets" : 1,
					"numoutlets" : 1,
					"outlettype" : [ "" ],
					"patching_rect" : [ 838.994018644641415, 1394.0, 80.0, 22.0 ],
					"text" : "loadmess 0.5"
				}

			}
, 			{
				"box" : 				{
					"comment" : "grain_density",
					"id" : "obj-57",
					"index" : 0,
					"maxclass" : "inlet",
					"numinlets" : 0,
					"numoutlets" : 1,
					"outlettype" : [ "" ],
					"patching_rect" : [ 967.830877468585527, 872.589370303153828, 30.0, 30.0 ]
				}

			}
, 			{
				"box" : 				{
					"comment" : "grain_length",
					"id" : "obj-56",
					"index" : 0,
					"maxclass" : "inlet",
					"numinlets" : 0,
					"numoutlets" : 1,
					"outlettype" : [ "" ],
					"patching_rect" : [ 219.858160614967346, 1023.535337052345312, 30.0, 30.0 ]
				}

			}
, 			{
				"box" : 				{
					"comment" : "volume",
					"id" : "obj-52",
					"index" : 0,
					"maxclass" : "inlet",
					"numinlets" : 0,
					"numoutlets" : 1,
					"outlettype" : [ "" ],
					"patching_rect" : [ 515.114990890025979, 1274.666704654693604, 30.0, 30.0 ]
				}

			}
, 			{
				"box" : 				{
					"comment" : "master_grains_on/off",
					"id" : "obj-43",
					"index" : 0,
					"maxclass" : "inlet",
					"numinlets" : 0,
					"numoutlets" : 1,
					"outlettype" : [ "" ],
					"patching_rect" : [ 803.907637507270351, 804.01998092651354, 30.0, 30.0 ]
				}

			}
, 			{
				"box" : 				{
					"id" : "obj-48",
					"maxclass" : "message",
					"numinlets" : 2,
					"numoutlets" : 1,
					"outlettype" : [ "" ],
					"patching_rect" : [ 803.907637507270351, 847.704754822254017, 42.0, 22.0 ],
					"text" : "0 0 $1"
				}

			}
, 			{
				"box" : 				{
					"comment" : "master_pulse_on/off",
					"id" : "obj-42",
					"index" : 0,
					"maxclass" : "inlet",
					"numinlets" : 0,
					"numoutlets" : 1,
					"outlettype" : [ "" ],
					"patching_rect" : [ 1490.42222717841446, 65.251016464233402, 30.0, 30.0 ]
				}

			}
, 			{
				"box" : 				{
					"id" : "obj-15",
					"maxclass" : "message",
					"numinlets" : 2,
					"numoutlets" : 1,
					"outlettype" : [ "" ],
					"patching_rect" : [ 1490.42222717841446, 108.935790359973907, 42.0, 22.0 ],
					"text" : "0 0 $1"
				}

			}
, 			{
				"box" : 				{
					"id" : "obj-32",
					"linecount" : 2,
					"maxclass" : "comment",
					"numinlets" : 1,
					"numoutlets" : 0,
					"patching_rect" : [ 1620.166006082693912, 395.754862838710892, 87.0, 33.0 ],
					"presentation" : 1,
					"presentation_linecount" : 2,
					"presentation_rect" : [ 251.993079468559245, 260.294252877235408, 88.160633325576782, 33.0 ],
					"text" : "slice selection (mode 2)"
				}

			}
, 			{
				"box" : 				{
					"id" : "obj-37",
					"maxclass" : "message",
					"numinlets" : 2,
					"numoutlets" : 1,
					"outlettype" : [ "" ],
					"patching_rect" : [ 763.494018644641415, 847.704754822254017, 35.0, 22.0 ],
					"text" : "0 0 1"
				}

			}
, 			{
				"box" : 				{
					"id" : "obj-26",
					"maxclass" : "newobj",
					"numinlets" : 0,
					"numoutlets" : 1,
					"outlettype" : [ "" ],
					"patching_rect" : [ 763.494018644641415, 777.383569082668487, 103.0, 22.0 ],
					"text" : "r init_grains_inst3"
				}

			}
, 			{
				"box" : 				{
					"id" : "obj-2",
					"maxclass" : "newobj",
					"numinlets" : 1,
					"numoutlets" : 0,
					"patching_rect" : [ 268.576916921138491, 178.72688577890392, 87.0, 22.0 ],
					"text" : "s init_file_inst3"
				}

			}
, 			{
				"box" : 				{
					"id" : "obj-35",
					"maxclass" : "message",
					"numinlets" : 2,
					"numoutlets" : 1,
					"outlettype" : [ "" ],
					"patching_rect" : [ 1237.678448274135462, 397.706457848548666, 35.0, 22.0 ],
					"text" : "2 0 1"
				}

			}
, 			{
				"box" : 				{
					"id" : "obj-29",
					"maxclass" : "newobj",
					"numinlets" : 0,
					"numoutlets" : 1,
					"outlettype" : [ "" ],
					"patching_rect" : [ 1237.678448274135462, 367.542327040161013, 93.0, 22.0 ],
					"text" : "r init_expr_inst3"
				}

			}
, 			{
				"box" : 				{
					"id" : "obj-6",
					"maxclass" : "message",
					"numinlets" : 2,
					"numoutlets" : 1,
					"outlettype" : [ "" ],
					"patching_rect" : [ 1446.42222717841446, 108.935790359973907, 35.0, 22.0 ],
					"text" : "0 0 1"
				}

			}
, 			{
				"box" : 				{
					"id" : "obj-55",
					"linecount" : 2,
					"maxclass" : "message",
					"numinlets" : 2,
					"numoutlets" : 1,
					"outlettype" : [ "" ],
					"patching_rect" : [ 1189.0, 586.260476930141408, 50.0, 35.0 ],
					"text" : "104.727273"
				}

			}
, 			{
				"box" : 				{
					"id" : "obj-51",
					"maxclass" : "toggle",
					"numinlets" : 1,
					"numoutlets" : 1,
					"outlettype" : [ "int" ],
					"parameter_enable" : 0,
					"patching_rect" : [ 763.253274649928585, 970.898908066749755, 24.0, 24.0 ]
				}

			}
, 			{
				"box" : 				{
					"id" : "obj-49",
					"maxclass" : "comment",
					"numinlets" : 1,
					"numoutlets" : 0,
					"patching_rect" : [ 803.907637507270351, 891.894172891651237, 76.92307448387146, 20.0 ],
					"presentation" : 1,
					"presentation_linecount" : 2,
					"presentation_rect" : [ 7.24857918913267, 2.056976561546321, 45.0, 33.0 ],
					"text" : "grains on/off"
				}

			}
, 			{
				"box" : 				{
					"id" : "obj-44",
					"maxclass" : "newobj",
					"numinlets" : 2,
					"numoutlets" : 2,
					"outlettype" : [ "", "" ],
					"patching_rect" : [ 763.494018644641415, 927.587109375000182, 47.0, 22.0 ],
					"text" : "zl nth 3"
				}

			}
, 			{
				"box" : 				{
					"columns" : 1,
					"id" : "obj-47",
					"maxclass" : "matrixctrl",
					"numinlets" : 1,
					"numoutlets" : 2,
					"one/column" : 1,
					"one/matrix" : 1,
					"outlettype" : [ "list", "list" ],
					"parameter_enable" : 0,
					"patching_rect" : [ 763.494018644641415, 882.305937155757988, 38.413618862628937, 39.176471471786499 ],
					"presentation" : 1,
					"presentation_rect" : [ 7.24857918913267, 39.101423387527461, 28.177045668116477, 27.860681772232056 ],
					"rows" : 1
				}

			}
, 			{
				"box" : 				{
					"id" : "obj-41",
					"maxclass" : "newobj",
					"numinlets" : 2,
					"numoutlets" : 2,
					"outlettype" : [ "", "" ],
					"patching_rect" : [ 1446.42222717841446, 185.935790359973907, 47.0, 22.0 ],
					"text" : "zl nth 3"
				}

			}
, 			{
				"box" : 				{
					"columns" : 1,
					"id" : "obj-40",
					"maxclass" : "matrixctrl",
					"numinlets" : 1,
					"numoutlets" : 2,
					"one/column" : 1,
					"one/matrix" : 1,
					"outlettype" : [ "list", "list" ],
					"parameter_enable" : 0,
					"patching_rect" : [ 1446.42222717841446, 140.654618140731714, 38.413618862628937, 39.176471471786499 ],
					"presentation" : 1,
					"presentation_rect" : [ 324.508504750803468, 39.101423387527461, 28.177045668116477, 27.860681772232056 ],
					"rows" : 1
				}

			}
, 			{
				"box" : 				{
					"id" : "obj-39",
					"maxclass" : "newobj",
					"numinlets" : 2,
					"numoutlets" : 1,
					"outlettype" : [ "int" ],
					"patching_rect" : [ 1237.678448274135462, 501.060237224101911, 29.5, 22.0 ],
					"text" : "+ 1"
				}

			}
, 			{
				"box" : 				{
					"id" : "obj-38",
					"maxclass" : "newobj",
					"numinlets" : 2,
					"numoutlets" : 2,
					"outlettype" : [ "", "" ],
					"patching_rect" : [ 1237.678448274135462, 475.266667034625812, 47.0, 22.0 ],
					"text" : "zl nth 1"
				}

			}
, 			{
				"box" : 				{
					"columns" : 3,
					"id" : "obj-23",
					"maxclass" : "matrixctrl",
					"numinlets" : 1,
					"numoutlets" : 2,
					"one/column" : 1,
					"one/matrix" : 1,
					"outlettype" : [ "list", "list" ],
					"parameter_enable" : 0,
					"patching_rect" : [ 1237.678448274135462, 428.145359416007864, 106.555217266082764, 39.176471471786499 ],
					"presentation" : 1,
					"presentation_rect" : [ 237.136754904587633, 39.101423387527461, 75.257736146450043, 27.860681772232056 ],
					"rows" : 1
				}

			}
, 			{
				"box" : 				{
					"id" : "obj-22",
					"maxclass" : "comment",
					"numinlets" : 1,
					"numoutlets" : 0,
					"patching_rect" : [ 1160.535581245422236, 437.733595151901113, 71.052632331848145, 20.0 ],
					"presentation" : 1,
					"presentation_linecount" : 2,
					"presentation_rect" : [ 237.136754904587633, 2.056976561546321, 41.0, 33.0 ],
					"text" : "pulse mode"
				}

			}
, 			{
				"box" : 				{
					"id" : "obj-17",
					"maxclass" : "comment",
					"numinlets" : 1,
					"numoutlets" : 0,
					"patching_rect" : [ 1368.274022295474879, 227.776186102356064, 75.438597202301025, 20.0 ],
					"presentation" : 1,
					"presentation_linecount" : 2,
					"presentation_rect" : [ 324.508504750803468, 2.056976561546321, 41.0, 33.0 ],
					"text" : "pulse on/off"
				}

			}
, 			{
				"box" : 				{
					"id" : "obj-16",
					"maxclass" : "comment",
					"numinlets" : 1,
					"numoutlets" : 0,
					"patching_rect" : [ 547.017546653747559, 132.148556172847748, 76.315790176391602, 20.0 ],
					"presentation" : 1,
					"presentation_linecount" : 2,
					"presentation_rect" : [ 73.738494143485582, 2.056976561546321, 58.193300008773804, 33.0 ],
					"text" : "file selection"
				}

			}
, 			{
				"box" : 				{
					"id" : "obj-13",
					"maxclass" : "newobj",
					"numinlets" : 0,
					"numoutlets" : 1,
					"outlettype" : [ "" ],
					"patching_rect" : [ 497.840053365230119, 76.935790359973907, 85.0, 22.0 ],
					"text" : "r init_file_inst3"
				}

			}
, 			{
				"box" : 				{
					"id" : "obj-14",
					"maxclass" : "message",
					"numinlets" : 2,
					"numoutlets" : 1,
					"outlettype" : [ "" ],
					"patching_rect" : [ 497.840053365230119, 132.148556172847748, 35.0, 22.0 ],
					"text" : "0 0 1"
				}

			}
, 			{
				"box" : 				{
					"columns" : 6,
					"id" : "obj-65",
					"maxclass" : "matrixctrl",
					"numinlets" : 1,
					"numoutlets" : 2,
					"one/column" : 1,
					"one/matrix" : 1,
					"outlettype" : [ "list", "list" ],
					"parameter_enable" : 0,
					"patching_rect" : [ 497.840053365230119, 173.451614005565602, 210.941181182861328, 39.176471471786499 ],
					"presentation" : 1,
					"presentation_rect" : [ 73.738494143485582, 39.101423387527461, 150.0, 27.860681772232056 ],
					"rows" : 1
				}

			}
, 			{
				"box" : 				{
					"id" : "obj-271",
					"maxclass" : "newobj",
					"numinlets" : 1,
					"numoutlets" : 1,
					"outlettype" : [ "" ],
					"patching_rect" : [ 424.929962286948353, 238.557022213935852, 67.0, 22.0 ],
					"text" : "mousefilter"
				}

			}
, 			{
				"box" : 				{
					"id" : "obj-272",
					"maxclass" : "message",
					"numinlets" : 2,
					"numoutlets" : 1,
					"outlettype" : [ "" ],
					"patching_rect" : [ 424.929962286948353, 265.557022213935852, 55.0, 22.0 ],
					"text" : "getrow 0"
				}

			}
, 			{
				"box" : 				{
					"id" : "obj-12",
					"maxclass" : "newobj",
					"numinlets" : 0,
					"numoutlets" : 1,
					"outlettype" : [ "" ],
					"patching_rect" : [ 596.79839301109314, 1023.535337052345312, 119.0, 22.0 ],
					"text" : "r init_pitch_var_inst3"
				}

			}
, 			{
				"box" : 				{
					"id" : "obj-10",
					"maxclass" : "message",
					"numinlets" : 2,
					"numoutlets" : 1,
					"outlettype" : [ "" ],
					"patching_rect" : [ 596.79839301109314, 1049.535337052345312, 29.5, 22.0 ],
					"text" : "0"
				}

			}
, 			{
				"box" : 				{
					"id" : "obj-3",
					"maxclass" : "newobj",
					"numinlets" : 1,
					"numoutlets" : 0,
					"patching_rect" : [ 41.603416907786936, 322.72688577890392, 121.0, 22.0 ],
					"text" : "s init_pitch_var_inst3"
				}

			}
, 			{
				"box" : 				{
					"comment" : "sound_out",
					"id" : "obj-46",
					"index" : 0,
					"maxclass" : "outlet",
					"numinlets" : 1,
					"numoutlets" : 0,
					"patching_rect" : [ 718.207405180285946, 1607.854911727905574, 30.0, 30.0 ]
				}

			}
, 			{
				"box" : 				{
					"comment" : "osc_in",
					"id" : "obj-45",
					"index" : 0,
					"maxclass" : "inlet",
					"numinlets" : 0,
					"numoutlets" : 1,
					"outlettype" : [ "" ],
					"patching_rect" : [ 81.603418338298411, 371.947474132129742, 30.0, 30.0 ]
				}

			}
, 			{
				"box" : 				{
					"id" : "obj-36",
					"maxclass" : "message",
					"numinlets" : 2,
					"numoutlets" : 1,
					"outlettype" : [ "" ],
					"patching_rect" : [ 1560.146906867027155, 855.504657120159322, 29.5, 22.0 ],
					"text" : "1"
				}

			}
, 			{
				"box" : 				{
					"id" : "obj-34",
					"maxclass" : "newobj",
					"numinlets" : 0,
					"numoutlets" : 1,
					"outlettype" : [ "" ],
					"patching_rect" : [ 1560.146906867027155, 818.117675100292331, 159.0, 22.0 ],
					"text" : "r init_grain_enveloppe_inst3"
				}

			}
, 			{
				"box" : 				{
					"id" : "obj-33",
					"maxclass" : "newobj",
					"numinlets" : 0,
					"numoutlets" : 1,
					"outlettype" : [ "" ],
					"patching_rect" : [ 1446.42222717841446, 26.935789167881012, 99.0, 22.0 ],
					"text" : "r init_pulse_inst3"
				}

			}
, 			{
				"box" : 				{
					"id" : "obj-31",
					"maxclass" : "newobj",
					"numinlets" : 0,
					"numoutlets" : 1,
					"outlettype" : [ "" ],
					"patching_rect" : [ 1655.133473668893203, 125.196267290115316, 145.0, 22.0 ],
					"text" : "r init_pulse_params_inst3"
				}

			}
, 			{
				"box" : 				{
					"id" : "obj-30",
					"maxclass" : "message",
					"numinlets" : 2,
					"numoutlets" : 1,
					"outlettype" : [ "" ],
					"patching_rect" : [ 703.070944637607113, 867.047223014831616, 29.5, 22.0 ],
					"text" : "1"
				}

			}
, 			{
				"box" : 				{
					"id" : "obj-25",
					"maxclass" : "message",
					"numinlets" : 2,
					"numoutlets" : 1,
					"outlettype" : [ "" ],
					"patching_rect" : [ 1655.133473668893203, 154.167913016353509, 29.5, 22.0 ],
					"text" : "1"
				}

			}
, 			{
				"box" : 				{
					"id" : "obj-21",
					"maxclass" : "newobj",
					"numinlets" : 1,
					"numoutlets" : 0,
					"patching_rect" : [ 117.26125024557075, 274.72688577890392, 161.0, 22.0 ],
					"text" : "s init_grain_enveloppe_inst3"
				}

			}
, 			{
				"box" : 				{
					"id" : "obj-19",
					"maxclass" : "newobj",
					"numinlets" : 1,
					"numoutlets" : 0,
					"patching_rect" : [ 230.74800025224647, 202.72688577890392, 147.0, 22.0 ],
					"text" : "s init_pulse_params_inst3"
				}

			}
, 			{
				"box" : 				{
					"id" : "obj-18",
					"maxclass" : "preset",
					"numinlets" : 1,
					"numoutlets" : 5,
					"outlettype" : [ "preset", "int", "preset", "int", "" ],
					"patching_rect" : [ 703.070944637607113, 902.384244852065876, 29.487170577049255, 18.205125451087952 ],
					"preset_data" : [ 						{
							"number" : 1,
							"data" : [ 5, "obj-175", "flonum", "float", 0.0, 5, "obj-145", "flonum", "float", 140.0, 5, "obj-132", "flonum", "float", 0.0, 5, "obj-126", "flonum", "float", 0.0, 5, "obj-121", "flonum", "float", 1.0, 5, "obj-162", "flonum", "float", 126.0 ]
						}
 ]
				}

			}
, 			{
				"box" : 				{
					"id" : "obj-11",
					"maxclass" : "newobj",
					"numinlets" : 1,
					"numoutlets" : 0,
					"patching_rect" : [ 192.919083583354563, 226.72688577890392, 95.0, 22.0 ],
					"text" : "s init_expr_inst3"
				}

			}
, 			{
				"box" : 				{
					"id" : "obj-8",
					"maxclass" : "newobj",
					"numinlets" : 1,
					"numoutlets" : 0,
					"patching_rect" : [ 155.090166914462657, 250.72688577890392, 101.0, 22.0 ],
					"text" : "s init_pulse_inst3"
				}

			}
, 			{
				"box" : 				{
					"id" : "obj-7",
					"maxclass" : "newobj",
					"numinlets" : 1,
					"numoutlets" : 0,
					"patching_rect" : [ 79.432333576678843, 298.72688577890392, 105.0, 22.0 ],
					"text" : "s init_grains_inst3"
				}

			}
, 			{
				"box" : 				{
					"id" : "obj-4",
					"maxclass" : "newobj",
					"numinlets" : 1,
					"numoutlets" : 7,
					"outlettype" : [ "bang", "bang", "bang", "bang", "bang", "bang", "bang" ],
					"patching_rect" : [ 41.603416907786936, 124.294747693538625, 245.973500013351497, 22.0 ],
					"text" : "t b b b b b b b"
				}

			}
, 			{
				"box" : 				{
					"id" : "obj-1",
					"maxclass" : "newobj",
					"numinlets" : 1,
					"numoutlets" : 1,
					"outlettype" : [ "bang" ],
					"patching_rect" : [ 41.603416907786936, 76.935790359973907, 58.0, 22.0 ],
					"text" : "loadbang"
				}

			}
, 			{
				"box" : 				{
					"id" : "obj-418",
					"maxclass" : "newobj",
					"numinlets" : 0,
					"numoutlets" : 1,
					"outlettype" : [ "" ],
					"patching_rect" : [ 1698.909784986972682, 461.905926805461945, 83.0, 22.0 ],
					"text" : "r lookup_inst3"
				}

			}
, 			{
				"box" : 				{
					"id" : "obj-417",
					"maxclass" : "newobj",
					"numinlets" : 1,
					"numoutlets" : 0,
					"patching_rect" : [ 41.603416907786936, 574.108316722461723, 85.0, 22.0 ],
					"text" : "s lookup_inst3"
				}

			}
, 			{
				"box" : 				{
					"id" : "obj-413",
					"maxclass" : "newobj",
					"numinlets" : 1,
					"numoutlets" : 1,
					"outlettype" : [ "" ],
					"patching_rect" : [ 1698.909784986972682, 495.383346849407303, 100.0, 22.0 ],
					"text" : "expr $f1*8.5 + 20"
				}

			}
, 			{
				"box" : 				{
					"id" : "obj-373",
					"maxclass" : "newobj",
					"numinlets" : 0,
					"numoutlets" : 1,
					"outlettype" : [ "" ],
					"patching_rect" : [ 41.603416907786936, 466.095307301555749, 79.0, 22.0 ],
					"text" : "r metro_inst3"
				}

			}
, 			{
				"box" : 				{
					"id" : "obj-372",
					"maxclass" : "newobj",
					"numinlets" : 1,
					"numoutlets" : 0,
					"patching_rect" : [ 1361.051831637223358, 327.270838923454335, 81.0, 22.0 ],
					"text" : "s metro_inst3"
				}

			}
, 			{
				"box" : 				{
					"id" : "obj-367",
					"maxclass" : "newobj",
					"numinlets" : 2,
					"numoutlets" : 1,
					"outlettype" : [ "" ],
					"patching_rect" : [ 41.603416907786936, 503.372043097564756, 115.206896185874939, 22.0 ],
					"text" : "random"
				}

			}
, 			{
				"box" : 				{
					"id" : "obj-363",
					"maxclass" : "newobj",
					"numinlets" : 2,
					"numoutlets" : 2,
					"outlettype" : [ "", "" ],
					"patching_rect" : [ 137.810313093661875, 466.095307301555749, 37.0, 22.0 ],
					"text" : "zl.len"
				}

			}
, 			{
				"box" : 				{
					"id" : "obj-362",
					"maxclass" : "newobj",
					"numinlets" : 2,
					"numoutlets" : 2,
					"outlettype" : [ "", "" ],
					"patching_rect" : [ 41.603416907786936, 542.555748235260126, 115.310340762138367, 22.0 ],
					"text" : "zl.lookup"
				}

			}
, 			{
				"box" : 				{
					"id" : "obj-354",
					"maxclass" : "newobj",
					"numinlets" : 2,
					"numoutlets" : 2,
					"outlettype" : [ "", "" ],
					"patching_rect" : [ 81.603418338298411, 415.034948194572507, 75.206894755363464, 22.0 ],
					"text" : "zl.filter 0."
				}

			}
, 			{
				"box" : 				{
					"format" : 6,
					"id" : "obj-298",
					"maxclass" : "flonum",
					"numinlets" : 1,
					"numoutlets" : 2,
					"outlettype" : [ "", "bang" ],
					"parameter_enable" : 0,
					"patching_rect" : [ 1620.166006082693912, 437.905926805461945, 50.0, 22.0 ],
					"presentation" : 1,
					"presentation_rect" : [ 251.993079468559245, 299.269040589332576, 88.0, 22.0 ]
				}

			}
, 			{
				"box" : 				{
					"id" : "obj-27",
					"maxclass" : "newobj",
					"numinlets" : 4,
					"numoutlets" : 1,
					"outlettype" : [ "" ],
					"patching_rect" : [ 1237.678448274135462, 536.367506761005529, 480.231336712837219, 22.0 ],
					"text" : "switch 3"
				}

			}
, 			{
				"box" : 				{
					"id" : "obj-5",
					"maxclass" : "newobj",
					"numinlets" : 2,
					"numoutlets" : 1,
					"outlettype" : [ "" ],
					"patching_rect" : [ 1545.166006082693684, 495.383346849407303, 94.0, 22.0 ],
					"text" : "expr $f1+$f2*10"
				}

			}
, 			{
				"box" : 				{
					"id" : "obj-308",
					"maxclass" : "newobj",
					"numinlets" : 0,
					"numoutlets" : 1,
					"outlettype" : [ "" ],
					"patching_rect" : [ 552.448325335979348, 1274.666704654693604, 134.0, 22.0 ],
					"text" : "r vol_from_switch_inst3"
				}

			}
, 			{
				"box" : 				{
					"id" : "obj-302",
					"maxclass" : "newobj",
					"numinlets" : 1,
					"numoutlets" : 0,
					"patching_rect" : [ 647.78783349752382, 348.44060522556299, 136.0, 22.0 ],
					"text" : "s vol_from_switch_inst3"
				}

			}
, 			{
				"box" : 				{
					"id" : "obj-301",
					"maxclass" : "message",
					"numinlets" : 2,
					"numoutlets" : 1,
					"outlettype" : [ "" ],
					"patching_rect" : [ 681.090036675929582, 310.396687932014402, 29.5, 22.0 ],
					"text" : "34"
				}

			}
, 			{
				"box" : 				{
					"id" : "obj-299",
					"maxclass" : "message",
					"numinlets" : 2,
					"numoutlets" : 1,
					"outlettype" : [ "" ],
					"patching_rect" : [ 647.78783349752382, 310.396687932014402, 29.5, 22.0 ],
					"text" : "0"
				}

			}
, 			{
				"box" : 				{
					"id" : "obj-296",
					"maxclass" : "newobj",
					"numinlets" : 3,
					"numoutlets" : 3,
					"outlettype" : [ "bang", "bang", "" ],
					"patching_rect" : [ 647.78783349752382, 278.467657914161578, 44.0, 22.0 ],
					"text" : "sel 0 1"
				}

			}
, 			{
				"box" : 				{
					"id" : "obj-284",
					"maxclass" : "newobj",
					"numinlets" : 2,
					"numoutlets" : 2,
					"outlettype" : [ "", "" ],
					"patching_rect" : [ 647.815724427700275, 251.703213734626729, 47.0, 22.0 ],
					"text" : "zl nth 3"
				}

			}
, 			{
				"box" : 				{
					"id" : "obj-313",
					"maxclass" : "message",
					"numinlets" : 2,
					"numoutlets" : 1,
					"outlettype" : [ "" ],
					"patching_rect" : [ 798.808521673679024, 413.656351487636471, 79.0, 22.0 ],
					"text" : "136_edit.wav"
				}

			}
, 			{
				"box" : 				{
					"id" : "obj-305",
					"maxclass" : "message",
					"numinlets" : 2,
					"numoutlets" : 1,
					"outlettype" : [ "" ],
					"patching_rect" : [ 999.454167212644961, 413.656351487636471, 79.0, 22.0 ],
					"text" : "107_edit.wav"
				}

			}
, 			{
				"box" : 				{
					"id" : "obj-304",
					"maxclass" : "message",
					"numinlets" : 2,
					"numoutlets" : 1,
					"outlettype" : [ "" ],
					"patching_rect" : [ 899.131344443161879, 413.656351487636471, 79.0, 22.0 ],
					"text" : "102_edit.wav"
				}

			}
, 			{
				"box" : 				{
					"id" : "obj-303",
					"maxclass" : "newobj",
					"numinlets" : 7,
					"numoutlets" : 7,
					"outlettype" : [ "bang", "bang", "bang", "bang", "bang", "bang", "" ],
					"patching_rect" : [ 497.840053365230119, 379.884882485866456, 620.936936616897583, 22.0 ],
					"text" : "sel 0 1 2 3 4 5"
				}

			}
, 			{
				"box" : 				{
					"id" : "obj-294",
					"maxclass" : "message",
					"numinlets" : 2,
					"numoutlets" : 1,
					"outlettype" : [ "" ],
					"patching_rect" : [ 698.485698904195942, 413.656351487636471, 79.0, 22.0 ],
					"text" : "123_edit.wav"
				}

			}
, 			{
				"box" : 				{
					"id" : "obj-281",
					"maxclass" : "preset",
					"numinlets" : 1,
					"numoutlets" : 5,
					"outlettype" : [ "preset", "int", "preset", "int", "" ],
					"patching_rect" : [ 1655.133473668893203, 185.935790359973907, 28.181820750236511, 18.336823403835297 ],
					"preset_data" : [ 						{
							"number" : 1,
							"data" : [ 5, "obj-386", "number", "int", 11, 5, "obj-289", "flonum", "float", 140.0 ]
						}
 ]
				}

			}
, 			{
				"box" : 				{
					"id" : "obj-280",
					"maxclass" : "message",
					"numinlets" : 2,
					"numoutlets" : 1,
					"outlettype" : [ "" ],
					"patching_rect" : [ 598.162876134713088, 413.656351487636471, 79.0, 22.0 ],
					"text" : "121_edit.wav"
				}

			}
, 			{
				"box" : 				{
					"id" : "obj-398",
					"maxclass" : "button",
					"numinlets" : 1,
					"numoutlets" : 1,
					"outlettype" : [ "bang" ],
					"parameter_enable" : 0,
					"patching_rect" : [ 1809.213533833026759, 941.920836009434311, 24.0, 24.0 ]
				}

			}
, 			{
				"box" : 				{
					"id" : "obj-396",
					"maxclass" : "preset",
					"numinlets" : 1,
					"numoutlets" : 5,
					"outlettype" : [ "preset", "int", "preset", "int", "" ],
					"patching_rect" : [ 1560.146906867027155, 890.092138971737199, 30.606932759284973, 18.750002026557922 ],
					"preset_data" : [ 						{
							"number" : 1,
							"data" : [ 4, "obj-377", "function", "clear", 8, "obj-377", "function", "add_with_curve", 0.0, 0.0, 0, 0.0, 8, "obj-377", "function", "add_with_curve", 31.116409626412899, 0.994908931414287, 0, 0.445, 8, "obj-377", "function", "add_with_curve", 962.520664945561862, 1.0, 0, -0.45, 8, "obj-377", "function", "add_with_curve", 1000.0, 0.0, 0, -0.595, 5, "obj-377", "function", "domain", 1024.0, 6, "obj-377", "function", "range", 0.0, 1.0, 5, "obj-377", "function", "mode", 1 ]
						}
 ]
				}

			}
, 			{
				"box" : 				{
					"id" : "obj-395",
					"maxclass" : "newobj",
					"numinlets" : 1,
					"numoutlets" : 0,
					"patching_rect" : [ 1519.315294419129486, 280.128027730907547, 119.0, 22.0 ],
					"text" : "s pulse_tempo_inst3"
				}

			}
, 			{
				"box" : 				{
					"id" : "obj-394",
					"maxclass" : "newobj",
					"numinlets" : 0,
					"numoutlets" : 1,
					"outlettype" : [ "" ],
					"patching_rect" : [ 990.684536383151681, 918.0, 117.0, 22.0 ],
					"text" : "r pulse_tempo_inst3"
				}

			}
, 			{
				"box" : 				{
					"id" : "obj-393",
					"maxclass" : "newobj",
					"numinlets" : 0,
					"numoutlets" : 1,
					"outlettype" : [ "" ],
					"patching_rect" : [ 41.603416907786936, 1012.492604074478095, 117.0, 22.0 ],
					"text" : "r pulse_tempo_inst3"
				}

			}
, 			{
				"box" : 				{
					"id" : "obj-392",
					"maxclass" : "newobj",
					"numinlets" : 1,
					"numoutlets" : 1,
					"outlettype" : [ "" ],
					"patching_rect" : [ 41.603416907786936, 1049.535337052345312, 80.0, 22.0 ],
					"text" : "expr $f1 * 0.9"
				}

			}
, 			{
				"box" : 				{
					"id" : "obj-391",
					"maxclass" : "newobj",
					"numinlets" : 2,
					"numoutlets" : 1,
					"outlettype" : [ "int" ],
					"patching_rect" : [ 1486.42222717841446, 361.754862838710892, 29.5, 22.0 ],
					"text" : "- 1"
				}

			}
, 			{
				"box" : 				{
					"format" : 6,
					"id" : "obj-390",
					"maxclass" : "flonum",
					"numinlets" : 1,
					"numoutlets" : 2,
					"outlettype" : [ "", "bang" ],
					"parameter_enable" : 0,
					"patching_rect" : [ 1446.42222717841446, 437.905926805461945, 50.0, 22.0 ]
				}

			}
, 			{
				"box" : 				{
					"id" : "obj-388",
					"maxclass" : "newobj",
					"numinlets" : 2,
					"numoutlets" : 1,
					"outlettype" : [ "float" ],
					"patching_rect" : [ 1391.42222717841446, 437.905926805461945, 29.5, 22.0 ],
					"text" : "+ 1."
				}

			}
, 			{
				"box" : 				{
					"id" : "obj-386",
					"maxclass" : "number",
					"numinlets" : 1,
					"numoutlets" : 2,
					"outlettype" : [ "", "bang" ],
					"parameter_enable" : 0,
					"patching_rect" : [ 1516.42222717841446, 324.259196752037155, 50.0, 22.0 ]
				}

			}
, 			{
				"box" : 				{
					"id" : "obj-380",
					"maxclass" : "newobj",
					"numinlets" : 2,
					"numoutlets" : 1,
					"outlettype" : [ "" ],
					"patching_rect" : [ 1391.42222717841446, 495.383346849407303, 144.0, 22.0 ],
					"text" : "expr ($f1 / $f2) * 128"
				}

			}
, 			{
				"box" : 				{
					"id" : "obj-290",
					"maxclass" : "newobj",
					"numinlets" : 1,
					"numoutlets" : 1,
					"outlettype" : [ "bang" ],
					"patching_rect" : [ 1676.950373246669642, 1098.289258040837012, 60.0, 22.0 ],
					"text" : "loadbang"
				}

			}
, 			{
				"box" : 				{
					"id" : "obj-292",
					"maxclass" : "newobj",
					"numinlets" : 1,
					"numoutlets" : 2,
					"outlettype" : [ "int", "int" ],
					"patching_rect" : [ 1785.950373246669642, 1165.920836009434424, 29.5, 22.0 ],
					"text" : "t i i"
				}

			}
, 			{
				"box" : 				{
					"id" : "obj-365",
					"maxclass" : "newobj",
					"numinlets" : 2,
					"numoutlets" : 3,
					"outlettype" : [ "bang", "bang", "int" ],
					"patching_rect" : [ 1738.950373246669642, 1133.078731216839515, 66.0, 22.0 ],
					"text" : "uzi 1024 0"
				}

			}
, 			{
				"box" : 				{
					"id" : "obj-368",
					"maxclass" : "newobj",
					"numinlets" : 3,
					"numoutlets" : 1,
					"outlettype" : [ "float" ],
					"patching_rect" : [ 1785.950373246669642, 1230.920836009434424, 179.0, 22.0 ],
					"text" : "peek~ enveloppe_window_inst3"
				}

			}
, 			{
				"box" : 				{
					"addpoints_with_curve" : [ 0.0, 0.0, 0, 0.0, 31.116409626412899, 0.994908931414287, 0, 0.445, 962.520664945561862, 1.0, 0, -0.45, 1000.0, 0.0, 0, -0.595 ],
					"classic_curve" : 1,
					"domain" : 1024.0,
					"id" : "obj-377",
					"maxclass" : "function",
					"mode" : 1,
					"numinlets" : 1,
					"numoutlets" : 4,
					"outlettype" : [ "float", "", "", "bang" ],
					"parameter_enable" : 0,
					"patching_rect" : [ 1557.950373246669642, 982.920836009434311, 200.0, 100.0 ],
					"varname" : "function[1]"
				}

			}
, 			{
				"box" : 				{
					"attr" : "domain",
					"id" : "obj-378",
					"maxclass" : "attrui",
					"numinlets" : 1,
					"numoutlets" : 1,
					"outlettype" : [ "" ],
					"parameter_enable" : 0,
					"patching_rect" : [ 1607.950373246669642, 888.467139985016161, 150.0, 22.0 ]
				}

			}
, 			{
				"box" : 				{
					"format" : 6,
					"id" : "obj-289",
					"maxclass" : "flonum",
					"numinlets" : 1,
					"numoutlets" : 2,
					"outlettype" : [ "", "bang" ],
					"parameter_enable" : 0,
					"patching_rect" : [ 1490.42222717841446, 226.776186102356064, 50.0, 22.0 ]
				}

			}
, 			{
				"box" : 				{
					"id" : "obj-285",
					"maxclass" : "toggle",
					"numinlets" : 1,
					"numoutlets" : 1,
					"outlettype" : [ "int" ],
					"parameter_enable" : 0,
					"patching_rect" : [ 1446.42222717841446, 225.776186102356064, 24.0, 24.0 ]
				}

			}
, 			{
				"box" : 				{
					"id" : "obj-249",
					"maxclass" : "newobj",
					"numinlets" : 2,
					"numoutlets" : 1,
					"outlettype" : [ "" ],
					"patching_rect" : [ 1446.42222717841446, 389.457037204231369, 59.0, 22.0 ],
					"text" : "random 8"
				}

			}
, 			{
				"box" : 				{
					"id" : "obj-237",
					"maxclass" : "newobj",
					"numinlets" : 2,
					"numoutlets" : 1,
					"outlettype" : [ "bang" ],
					"patching_rect" : [ 1446.42222717841446, 281.074011736835587, 63.0, 22.0 ],
					"text" : "metro 200"
				}

			}
, 			{
				"box" : 				{
					"id" : "obj-20",
					"maxclass" : "message",
					"numinlets" : 2,
					"numoutlets" : 1,
					"outlettype" : [ "" ],
					"patching_rect" : [ 497.840053365230119, 413.656351487636471, 78.0, 22.0 ],
					"text" : "119_edit.wav"
				}

			}
, 			{
				"box" : 				{
					"id" : "obj-9",
					"maxclass" : "newobj",
					"numinlets" : 2,
					"numoutlets" : 1,
					"outlettype" : [ "bang" ],
					"patching_rect" : [ 426.510977690219647, 644.036416561603687, 61.0, 22.0 ],
					"text" : "delay 500"
				}

			}
, 			{
				"box" : 				{
					"id" : "obj-24",
					"maxclass" : "newobj",
					"numinlets" : 1,
					"numoutlets" : 1,
					"outlettype" : [ "" ],
					"patching_rect" : [ 497.840053365230119, 591.031614277363019, 95.0, 22.0 ],
					"text" : "prepend replace"
				}

			}
, 			{
				"box" : 				{
					"id" : "obj-66",
					"maxclass" : "newobj",
					"numinlets" : 1,
					"numoutlets" : 0,
					"patching_rect" : [ 509.844311023553018, 740.0, 161.0, 22.0 ],
					"text" : "s audioFile_length_ms_inst3"
				}

			}
, 			{
				"box" : 				{
					"id" : "obj-74",
					"maxclass" : "newobj",
					"numinlets" : 1,
					"numoutlets" : 10,
					"outlettype" : [ "float", "list", "float", "float", "float", "float", "float", "", "int", "" ],
					"patching_rect" : [ 426.510977690219647, 705.263237864971302, 144.0, 22.0 ],
					"text" : "info~ grainproducer_inst3"
				}

			}
, 			{
				"box" : 				{
					"id" : "obj-77",
					"maxclass" : "newobj",
					"numinlets" : 1,
					"numoutlets" : 2,
					"outlettype" : [ "float", "bang" ],
					"patching_rect" : [ 497.840053365230119, 644.036416561603687, 202.0, 22.0 ],
					"text" : "buffer~ grainproducer_inst3 30000 2"
				}

			}
, 			{
				"box" : 				{
					"id" : "obj-113",
					"maxclass" : "live.dial",
					"numinlets" : 1,
					"numoutlets" : 2,
					"outlettype" : [ "", "float" ],
					"parameter_enable" : 1,
					"patching_rect" : [ 544.929797351360207, 1023.535337052345312, 41.0, 48.0 ],
					"saved_attribute_attributes" : 					{
						"valueof" : 						{
							"parameter_longname" : "live.dial[12]",
							"parameter_mmax" : 1.0,
							"parameter_modmode" : 0,
							"parameter_shortname" : "live.dial",
							"parameter_type" : 0,
							"parameter_unitstyle" : 1
						}

					}
,
					"varname" : "live.dial[1]"
				}

			}
, 			{
				"box" : 				{
					"id" : "obj-114",
					"maxclass" : "live.dial",
					"numinlets" : 1,
					"numoutlets" : 2,
					"outlettype" : [ "", "float" ],
					"parameter_enable" : 1,
					"patching_rect" : [ 405.181261837482168, 1023.535337052345312, 41.0, 48.0 ],
					"saved_attribute_attributes" : 					{
						"valueof" : 						{
							"parameter_longname" : "live.dial[11]",
							"parameter_mmax" : 10000.0,
							"parameter_modmode" : 0,
							"parameter_shortname" : "live.dial",
							"parameter_type" : 0,
							"parameter_unitstyle" : 1
						}

					}
,
					"varname" : "live.dial[2]"
				}

			}
, 			{
				"box" : 				{
					"id" : "obj-115",
					"maxclass" : "live.dial",
					"numinlets" : 1,
					"numoutlets" : 2,
					"outlettype" : [ "", "float" ],
					"parameter_enable" : 1,
					"patching_rect" : [ 292.053770010471169, 1023.535337052345312, 41.0, 48.0 ],
					"saved_attribute_attributes" : 					{
						"valueof" : 						{
							"parameter_longname" : "live.dial[10]",
							"parameter_mmax" : 4.0,
							"parameter_modmode" : 0,
							"parameter_shortname" : "live.dial",
							"parameter_type" : 0,
							"parameter_unitstyle" : 1
						}

					}
,
					"varname" : "live.dial[3]"
				}

			}
, 			{
				"box" : 				{
					"id" : "obj-116",
					"maxclass" : "live.dial",
					"numinlets" : 1,
					"numoutlets" : 2,
					"outlettype" : [ "", "float" ],
					"parameter_enable" : 1,
					"patching_rect" : [ 170.77918833494158, 1023.535337052345312, 41.0, 48.0 ],
					"saved_attribute_attributes" : 					{
						"valueof" : 						{
							"parameter_longname" : "live.dial[9]",
							"parameter_mmax" : 10000.0,
							"parameter_modmode" : 0,
							"parameter_shortname" : "live.dial",
							"parameter_type" : 0,
							"parameter_unitstyle" : 1
						}

					}
,
					"varname" : "live.dial[5]"
				}

			}
, 			{
				"box" : 				{
					"id" : "obj-117",
					"maxclass" : "live.dial",
					"numinlets" : 1,
					"numoutlets" : 2,
					"outlettype" : [ "", "float" ],
					"parameter_enable" : 1,
					"patching_rect" : [ 915.914247125934139, 872.589370303153828, 41.0, 48.0 ],
					"saved_attribute_attributes" : 					{
						"valueof" : 						{
							"parameter_longname" : "live.dial[7]",
							"parameter_mmax" : 1000.0,
							"parameter_modmode" : 0,
							"parameter_shortname" : "live.dial[4]",
							"parameter_type" : 0,
							"parameter_unitstyle" : 1
						}

					}
,
					"varname" : "live.dial[6]"
				}

			}
, 			{
				"box" : 				{
					"id" : "obj-161",
					"linecount" : 2,
					"maxclass" : "comment",
					"numinlets" : 1,
					"numoutlets" : 0,
					"patching_rect" : [ 970.677033946513689, 965.898908066749755, 89.0, 33.0 ],
					"presentation" : 1,
					"presentation_linecount" : 2,
					"presentation_rect" : [ 7.24857918913267, 260.294252877235408, 88.0, 33.0 ],
					"text" : "grains density (every x ms)"
				}

			}
, 			{
				"box" : 				{
					"id" : "obj-143",
					"maxclass" : "newobj",
					"numinlets" : 0,
					"numoutlets" : 1,
					"outlettype" : [ "" ],
					"patching_rect" : [ 1326.993320896625391, 982.188198051453014, 177.0, 22.0 ],
					"text" : "r max_grain_duration_ms_inst3"
				}

			}
, 			{
				"box" : 				{
					"id" : "obj-141",
					"linecount" : 2,
					"maxclass" : "comment",
					"numinlets" : 1,
					"numoutlets" : 0,
					"patching_rect" : [ 544.929797351360207, 982.056886000633313, 103.0, 33.0 ],
					"text" : "pitch randomised variation",
					"textjustification" : 1
				}

			}
, 			{
				"box" : 				{
					"format" : 6,
					"id" : "obj-132",
					"maxclass" : "flonum",
					"numinlets" : 1,
					"numoutlets" : 2,
					"outlettype" : [ "", "bang" ],
					"parameter_enable" : 0,
					"patching_rect" : [ 544.929797351360207, 1100.370523142814591, 50.0, 22.0 ]
				}

			}
, 			{
				"box" : 				{
					"id" : "obj-120",
					"maxclass" : "newobj",
					"numinlets" : 1,
					"numoutlets" : 0,
					"patching_rect" : [ 544.929797351360207, 1137.050905032157971, 157.0, 22.0 ],
					"text" : "s max_variation_pitch_inst3"
				}

			}
, 			{
				"box" : 				{
					"id" : "obj-130",
					"linecount" : 2,
					"maxclass" : "comment",
					"numinlets" : 1,
					"numoutlets" : 0,
					"patching_rect" : [ 405.181261837482168, 982.056886000633313, 95.772463798522949, 33.0 ],
					"text" : "variation in grain start (ms)",
					"textjustification" : 1
				}

			}
, 			{
				"box" : 				{
					"id" : "obj-128",
					"linecount" : 2,
					"maxclass" : "comment",
					"numinlets" : 1,
					"numoutlets" : 0,
					"patching_rect" : [ 292.053770010471169, 982.056886000633313, 76.119405627250671, 33.0 ],
					"text" : "pitch multiplier",
					"textjustification" : 1
				}

			}
, 			{
				"box" : 				{
					"id" : "obj-125",
					"linecount" : 2,
					"maxclass" : "comment",
					"numinlets" : 1,
					"numoutlets" : 0,
					"patching_rect" : [ 170.77918833494158, 982.056886000633313, 82.160633325576782, 33.0 ],
					"presentation" : 1,
					"presentation_linecount" : 2,
					"presentation_rect" : [ 129.993079468559245, 260.294252877235408, 88.160633325576782, 33.0 ],
					"text" : "grain length (ms)"
				}

			}
, 			{
				"box" : 				{
					"id" : "obj-123",
					"maxclass" : "newobj",
					"numinlets" : 1,
					"numoutlets" : 0,
					"patching_rect" : [ 292.053770010471169, 1198.237328510284442, 160.0, 22.0 ],
					"text" : "s amount_to_read_ms_inst3"
				}

			}
, 			{
				"box" : 				{
					"id" : "obj-122",
					"maxclass" : "newobj",
					"numinlets" : 1,
					"numoutlets" : 2,
					"outlettype" : [ "bang", "float" ],
					"patching_rect" : [ 292.053770010471169, 1130.441147131919934, 29.5, 22.0 ],
					"text" : "t b f"
				}

			}
, 			{
				"box" : 				{
					"format" : 6,
					"id" : "obj-121",
					"maxclass" : "flonum",
					"numinlets" : 1,
					"numoutlets" : 2,
					"outlettype" : [ "", "bang" ],
					"parameter_enable" : 0,
					"patching_rect" : [ 292.053770010471169, 1100.370523142814591, 50.0, 22.0 ]
				}

			}
, 			{
				"box" : 				{
					"id" : "obj-124",
					"maxclass" : "newobj",
					"numinlets" : 2,
					"numoutlets" : 1,
					"outlettype" : [ "float" ],
					"patching_rect" : [ 292.053770010471169, 1170.209547123909033, 29.5, 22.0 ],
					"text" : "* 1."
				}

			}
, 			{
				"box" : 				{
					"format" : 6,
					"id" : "obj-126",
					"maxclass" : "flonum",
					"numinlets" : 1,
					"numoutlets" : 2,
					"outlettype" : [ "", "bang" ],
					"parameter_enable" : 0,
					"patching_rect" : [ 405.181261837482168, 1100.370523142814591, 50.0, 22.0 ]
				}

			}
, 			{
				"box" : 				{
					"id" : "obj-127",
					"maxclass" : "newobj",
					"numinlets" : 1,
					"numoutlets" : 0,
					"patching_rect" : [ 405.181261837482168, 1164.209547123909033, 193.0, 22.0 ],
					"text" : "s variation_starting_time_ms_inst3"
				}

			}
, 			{
				"box" : 				{
					"id" : "obj-129",
					"maxclass" : "newobj",
					"numinlets" : 1,
					"numoutlets" : 0,
					"patching_rect" : [ 1326.993320896625391, 936.403937663486772, 164.0, 22.0 ],
					"text" : "s buffer_start_read_ms_inst3"
				}

			}
, 			{
				"box" : 				{
					"id" : "obj-133",
					"maxclass" : "newobj",
					"numinlets" : 2,
					"numoutlets" : 1,
					"outlettype" : [ "float" ],
					"patching_rect" : [ 1280.888844325542323, 1015.319479913166219, 65.104476571083069, 22.0 ],
					"text" : "+ 50."
				}

			}
, 			{
				"box" : 				{
					"format" : 6,
					"id" : "obj-135",
					"maxclass" : "flonum",
					"numinlets" : 1,
					"numoutlets" : 2,
					"outlettype" : [ "", "bang" ],
					"parameter_enable" : 0,
					"patching_rect" : [ 1280.888844325542323, 890.092138971737199, 190.740751981735229, 22.0 ]
				}

			}
, 			{
				"box" : 				{
					"id" : "obj-138",
					"maxclass" : "newobj",
					"numinlets" : 0,
					"numoutlets" : 1,
					"outlettype" : [ "" ],
					"patching_rect" : [ 1348.088844325542368, 818.117675100292331, 159.0, 22.0 ],
					"text" : "r audioFile_length_ms_inst3"
				}

			}
, 			{
				"box" : 				{
					"id" : "obj-140",
					"maxclass" : "newobj",
					"numinlets" : 6,
					"numoutlets" : 1,
					"outlettype" : [ "" ],
					"patching_rect" : [ 1280.888844325542323, 855.504657120159322, 103.0, 22.0 ],
					"text" : "scale 0. 127. 0. 1."
				}

			}
, 			{
				"box" : 				{
					"floatoutput" : 1,
					"id" : "obj-142",
					"knobshape" : 5,
					"maxclass" : "slider",
					"numinlets" : 1,
					"numoutlets" : 1,
					"outlettype" : [ "" ],
					"parameter_enable" : 1,
					"patching_rect" : [ 1280.888844325542323, 771.834189078262511, 372.0000079870224, 33.098760008811951 ],
					"saved_attribute_attributes" : 					{
						"valueof" : 						{
							"parameter_longname" : "slider",
							"parameter_mmax" : 128.0,
							"parameter_modmode" : 0,
							"parameter_shortname" : "slider",
							"parameter_type" : 0
						}

					}
,
					"varname" : "slider"
				}

			}
, 			{
				"box" : 				{
					"id" : "obj-144",
					"knobshape" : 5,
					"maxclass" : "slider",
					"numinlets" : 1,
					"numoutlets" : 1,
					"outlettype" : [ "" ],
					"parameter_enable" : 1,
					"patching_rect" : [ 552.448325335979348, 1320.647697534561303, 34.962944030761719, 177.543215990066528 ],
					"presentation" : 1,
					"presentation_rect" : [ 394.378880605052927, 86.896515426635688, 28.473369956016541, 161.237076044082642 ],
					"saved_attribute_attributes" : 					{
						"valueof" : 						{
							"parameter_longname" : "slider[1]",
							"parameter_mmax" : 50.0,
							"parameter_modmode" : 0,
							"parameter_shortname" : "slider[1]",
							"parameter_type" : 0
						}

					}
,
					"size" : 51.0,
					"varname" : "slider[1]"
				}

			}
, 			{
				"box" : 				{
					"format" : 6,
					"id" : "obj-145",
					"maxclass" : "flonum",
					"numinlets" : 1,
					"numoutlets" : 2,
					"outlettype" : [ "", "bang" ],
					"parameter_enable" : 0,
					"patching_rect" : [ 915.914247125934139, 970.898908066749755, 50.0, 22.0 ],
					"presentation" : 1,
					"presentation_rect" : [ 7.24857918913267, 299.269040589332576, 87.89473819732666, 22.0 ]
				}

			}
, 			{
				"box" : 				{
					"id" : "obj-146",
					"maxclass" : "newobj",
					"numinlets" : 2,
					"numoutlets" : 1,
					"outlettype" : [ "multichannelsignal" ],
					"patching_rect" : [ 717.994018644641415, 1358.906953539848473, 268.836858823943999, 22.0 ],
					"text" : "mc.*~"
				}

			}
, 			{
				"box" : 				{
					"id" : "obj-147",
					"maxclass" : "newobj",
					"numinlets" : 3,
					"numoutlets" : 1,
					"outlettype" : [ "multichannelsignal" ],
					"patching_rect" : [ 967.830877468585527, 1288.441137056350726, 200.0, 22.0 ],
					"text" : "mc.wave~ enveloppe_window_inst3"
				}

			}
, 			{
				"box" : 				{
					"buffername" : "enveloppe_window_inst3",
					"id" : "obj-148",
					"maxclass" : "waveform~",
					"numinlets" : 5,
					"numoutlets" : 6,
					"outlettype" : [ "float", "float", "float", "float", "list", "" ],
					"patching_rect" : [ 1280.888844325542323, 1096.596771635464393, 190.768863320350647, 105.343669056892395 ]
				}

			}
, 			{
				"box" : 				{
					"id" : "obj-151",
					"maxclass" : "newobj",
					"numinlets" : 1,
					"numoutlets" : 2,
					"outlettype" : [ "float", "bang" ],
					"patching_rect" : [ 1280.888844325542323, 1060.753081004619617, 264.0, 22.0 ],
					"text" : "buffer~ enveloppe_window_inst3 @samps 1024"
				}

			}
, 			{
				"box" : 				{
					"id" : "obj-153",
					"maxclass" : "newobj",
					"numinlets" : 2,
					"numoutlets" : 1,
					"outlettype" : [ "bang" ],
					"patching_rect" : [ 763.253274649928585, 1009.87278621196765, 171.660972476005554, 22.0 ],
					"text" : "metro 1"
				}

			}
, 			{
				"box" : 				{
					"id" : "obj-154",
					"maxclass" : "message",
					"numinlets" : 2,
					"numoutlets" : 1,
					"outlettype" : [ "" ],
					"patching_rect" : [ 967.830877468585527, 1156.347224993705822, 45.0, 22.0 ],
					"text" : "0, 1 $1"
				}

			}
, 			{
				"box" : 				{
					"id" : "obj-155",
					"maxclass" : "newobj",
					"numinlets" : 2,
					"numoutlets" : 2,
					"outlettype" : [ "setvalue", "int" ],
					"patching_rect" : [ 967.830877468585527, 1198.237328510284442, 139.85365891456604, 22.0 ],
					"text" : "mc.target"
				}

			}
, 			{
				"box" : 				{
					"id" : "obj-156",
					"maxclass" : "newobj",
					"numinlets" : 2,
					"numoutlets" : 3,
					"outlettype" : [ "multichannelsignal", "", "" ],
					"patching_rect" : [ 967.830877468585527, 1245.075405879020764, 139.85365891456604, 22.0 ],
					"text" : "mc.line~ @chans 100"
				}

			}
, 			{
				"box" : 				{
					"id" : "obj-159",
					"maxclass" : "button",
					"numinlets" : 1,
					"numoutlets" : 1,
					"outlettype" : [ "bang" ],
					"parameter_enable" : 0,
					"patching_rect" : [ 717.994018644641415, 970.898908066749755, 24.0, 24.0 ]
				}

			}
, 			{
				"box" : 				{
					"id" : "obj-160",
					"maxclass" : "newobj",
					"numinlets" : 1,
					"numoutlets" : 2,
					"outlettype" : [ "", "int" ],
					"patching_rect" : [ 717.994018644641415, 1049.535337052345312, 181.0, 22.0 ],
					"text" : "mc.voiceallocator~ @voices 100"
				}

			}
, 			{
				"box" : 				{
					"format" : 6,
					"id" : "obj-162",
					"maxclass" : "flonum",
					"numinlets" : 1,
					"numoutlets" : 2,
					"outlettype" : [ "", "bang" ],
					"parameter_enable" : 0,
					"patching_rect" : [ 170.77918833494158, 1100.370523142814591, 50.0, 22.0 ],
					"presentation" : 1,
					"presentation_rect" : [ 129.993079468559245, 299.269040589332576, 87.89473819732666, 22.0 ]
				}

			}
, 			{
				"box" : 				{
					"id" : "obj-164",
					"maxclass" : "newobj",
					"numinlets" : 1,
					"numoutlets" : 0,
					"patching_rect" : [ 170.77918833494158, 1228.537526671886781, 179.0, 22.0 ],
					"text" : "s max_grain_duration_ms_inst3"
				}

			}
, 			{
				"box" : 				{
					"id" : "obj-165",
					"maxclass" : "newobj",
					"numinlets" : 1,
					"numoutlets" : 2,
					"outlettype" : [ "", "float" ],
					"patcher" : 					{
						"fileversion" : 1,
						"appversion" : 						{
							"major" : 8,
							"minor" : 6,
							"revision" : 1,
							"architecture" : "x64",
							"modernui" : 1
						}
,
						"classnamespace" : "box",
						"rect" : [ 42.0, 100.0, 1323.0, 783.0 ],
						"bglocked" : 0,
						"openinpresentation" : 0,
						"default_fontsize" : 12.0,
						"default_fontface" : 0,
						"default_fontname" : "Arial",
						"gridonopen" : 1,
						"gridsize" : [ 15.0, 15.0 ],
						"gridsnaponopen" : 1,
						"objectsnaponopen" : 1,
						"statusbarvisible" : 2,
						"toolbarvisible" : 1,
						"lefttoolbarpinned" : 0,
						"toptoolbarpinned" : 0,
						"righttoolbarpinned" : 0,
						"bottomtoolbarpinned" : 0,
						"toolbars_unpinned_last_save" : 0,
						"tallnewobj" : 0,
						"boxanimatetime" : 200,
						"enablehscroll" : 1,
						"enablevscroll" : 1,
						"devicewidth" : 0.0,
						"description" : "",
						"digest" : "",
						"tags" : "",
						"style" : "white",
						"subpatcher_template" : "",
						"assistshowspatchername" : 0,
						"boxes" : [ 							{
								"box" : 								{
									"id" : "obj-18",
									"maxclass" : "newobj",
									"numinlets" : 2,
									"numoutlets" : 2,
									"outlettype" : [ "float", "int" ],
									"patching_rect" : [ 625.84846907128906, 548.189634947776767, 74.0, 22.0 ],
									"text" : "maximum 2."
								}

							}
, 							{
								"box" : 								{
									"id" : "obj-17",
									"maxclass" : "newobj",
									"numinlets" : 2,
									"numoutlets" : 1,
									"outlettype" : [ "float" ],
									"patching_rect" : [ 626.999999813934323, 494.0, 92.5, 22.0 ],
									"text" : "+ 0."
								}

							}
, 							{
								"box" : 								{
									"id" : "obj-16",
									"maxclass" : "newobj",
									"numinlets" : 2,
									"numoutlets" : 1,
									"outlettype" : [ "float" ],
									"patching_rect" : [ 625.84846907128906, 448.448144006729137, 50.0, 22.0 ],
									"text" : "* 1."
								}

							}
, 							{
								"box" : 								{
									"id" : "obj-15",
									"maxclass" : "newobj",
									"numinlets" : 0,
									"numoutlets" : 1,
									"outlettype" : [ "" ],
									"patching_rect" : [ 656.999999813934323, 289.0, 155.0, 22.0 ],
									"text" : "r max_variation_pitch_inst3"
								}

							}
, 							{
								"box" : 								{
									"id" : "obj-14",
									"maxclass" : "newobj",
									"numinlets" : 6,
									"numoutlets" : 1,
									"outlettype" : [ "" ],
									"patching_rect" : [ 625.84846907128906, 253.0, 94.0, 22.0 ],
									"text" : "scale 0. 1. -1. 1."
								}

							}
, 							{
								"box" : 								{
									"id" : "obj-13",
									"maxclass" : "newobj",
									"numinlets" : 2,
									"numoutlets" : 1,
									"outlettype" : [ "float" ],
									"patching_rect" : [ 625.84846907128906, 333.910979757308951, 50.0, 22.0 ],
									"text" : "* 1."
								}

							}
, 							{
								"box" : 								{
									"id" : "obj-12",
									"maxclass" : "newobj",
									"numinlets" : 1,
									"numoutlets" : 1,
									"outlettype" : [ "float" ],
									"patcher" : 									{
										"fileversion" : 1,
										"appversion" : 										{
											"major" : 8,
											"minor" : 6,
											"revision" : 1,
											"architecture" : "x64",
											"modernui" : 1
										}
,
										"classnamespace" : "box",
										"rect" : [ 59.0, 119.0, 640.0, 480.0 ],
										"bglocked" : 0,
										"openinpresentation" : 0,
										"default_fontsize" : 12.0,
										"default_fontface" : 0,
										"default_fontname" : "Arial",
										"gridonopen" : 1,
										"gridsize" : [ 15.0, 15.0 ],
										"gridsnaponopen" : 1,
										"objectsnaponopen" : 1,
										"statusbarvisible" : 2,
										"toolbarvisible" : 1,
										"lefttoolbarpinned" : 0,
										"toptoolbarpinned" : 0,
										"righttoolbarpinned" : 0,
										"bottomtoolbarpinned" : 0,
										"toolbars_unpinned_last_save" : 0,
										"tallnewobj" : 0,
										"boxanimatetime" : 200,
										"enablehscroll" : 1,
										"enablevscroll" : 1,
										"devicewidth" : 0.0,
										"description" : "",
										"digest" : "",
										"tags" : "",
										"style" : "",
										"subpatcher_template" : "",
										"assistshowspatchername" : 0,
										"boxes" : [ 											{
												"box" : 												{
													"id" : "obj-40",
													"maxclass" : "newobj",
													"numinlets" : 2,
													"numoutlets" : 1,
													"outlettype" : [ "float" ],
													"patching_rect" : [ 50.0, 166.0, 47.0, 22.0 ],
													"text" : "* 0.001"
												}

											}
, 											{
												"box" : 												{
													"id" : "obj-39",
													"maxclass" : "newobj",
													"numinlets" : 2,
													"numoutlets" : 1,
													"outlettype" : [ "int" ],
													"patching_rect" : [ 50.0, 134.0, 29.5, 22.0 ],
													"text" : "+ 1"
												}

											}
, 											{
												"box" : 												{
													"id" : "obj-38",
													"maxclass" : "newobj",
													"numinlets" : 2,
													"numoutlets" : 1,
													"outlettype" : [ "" ],
													"patching_rect" : [ 50.0, 100.0, 79.0, 22.0 ],
													"text" : "random 1000"
												}

											}
, 											{
												"box" : 												{
													"comment" : "",
													"id" : "obj-9",
													"index" : 1,
													"maxclass" : "inlet",
													"numinlets" : 0,
													"numoutlets" : 1,
													"outlettype" : [ "bang" ],
													"patching_rect" : [ 49.999995813934333, 40.000002393325801, 30.0, 30.0 ]
												}

											}
, 											{
												"box" : 												{
													"comment" : "",
													"id" : "obj-10",
													"index" : 1,
													"maxclass" : "outlet",
													"numinlets" : 1,
													"numoutlets" : 0,
													"patching_rect" : [ 49.999995813934333, 247.999994393325778, 30.0, 30.0 ]
												}

											}
 ],
										"lines" : [ 											{
												"patchline" : 												{
													"destination" : [ "obj-39", 0 ],
													"source" : [ "obj-38", 0 ]
												}

											}
, 											{
												"patchline" : 												{
													"destination" : [ "obj-40", 0 ],
													"source" : [ "obj-39", 0 ]
												}

											}
, 											{
												"patchline" : 												{
													"destination" : [ "obj-10", 0 ],
													"source" : [ "obj-40", 0 ]
												}

											}
, 											{
												"patchline" : 												{
													"destination" : [ "obj-38", 0 ],
													"source" : [ "obj-9", 0 ]
												}

											}
 ]
									}
,
									"patching_rect" : [ 625.848469257354736, 193.304906999999986, 73.0, 22.0 ],
									"saved_object_attributes" : 									{
										"description" : "",
										"digest" : "",
										"globalpatchername" : "",
										"tags" : ""
									}
,
									"text" : "p random_1"
								}

							}
, 							{
								"box" : 								{
									"id" : "obj-11",
									"maxclass" : "newobj",
									"numinlets" : 1,
									"numoutlets" : 1,
									"outlettype" : [ "float" ],
									"patcher" : 									{
										"fileversion" : 1,
										"appversion" : 										{
											"major" : 8,
											"minor" : 6,
											"revision" : 1,
											"architecture" : "x64",
											"modernui" : 1
										}
,
										"classnamespace" : "box",
										"rect" : [ 59.0, 107.0, 640.0, 480.0 ],
										"bglocked" : 0,
										"openinpresentation" : 0,
										"default_fontsize" : 12.0,
										"default_fontface" : 0,
										"default_fontname" : "Arial",
										"gridonopen" : 1,
										"gridsize" : [ 15.0, 15.0 ],
										"gridsnaponopen" : 1,
										"objectsnaponopen" : 1,
										"statusbarvisible" : 2,
										"toolbarvisible" : 1,
										"lefttoolbarpinned" : 0,
										"toptoolbarpinned" : 0,
										"righttoolbarpinned" : 0,
										"bottomtoolbarpinned" : 0,
										"toolbars_unpinned_last_save" : 0,
										"tallnewobj" : 0,
										"boxanimatetime" : 200,
										"enablehscroll" : 1,
										"enablevscroll" : 1,
										"devicewidth" : 0.0,
										"description" : "",
										"digest" : "",
										"tags" : "",
										"style" : "",
										"subpatcher_template" : "",
										"assistshowspatchername" : 0,
										"boxes" : [ 											{
												"box" : 												{
													"id" : "obj-40",
													"maxclass" : "newobj",
													"numinlets" : 2,
													"numoutlets" : 1,
													"outlettype" : [ "float" ],
													"patching_rect" : [ 50.0, 166.0, 47.0, 22.0 ],
													"text" : "* 0.001"
												}

											}
, 											{
												"box" : 												{
													"id" : "obj-39",
													"maxclass" : "newobj",
													"numinlets" : 2,
													"numoutlets" : 1,
													"outlettype" : [ "int" ],
													"patching_rect" : [ 50.0, 134.0, 29.5, 22.0 ],
													"text" : "+ 1"
												}

											}
, 											{
												"box" : 												{
													"id" : "obj-38",
													"maxclass" : "newobj",
													"numinlets" : 2,
													"numoutlets" : 1,
													"outlettype" : [ "" ],
													"patching_rect" : [ 50.0, 100.0, 79.0, 22.0 ],
													"text" : "random 1000"
												}

											}
, 											{
												"box" : 												{
													"comment" : "",
													"id" : "obj-9",
													"index" : 1,
													"maxclass" : "inlet",
													"numinlets" : 0,
													"numoutlets" : 1,
													"outlettype" : [ "bang" ],
													"patching_rect" : [ 49.999995813934333, 40.000002393325801, 30.0, 30.0 ]
												}

											}
, 											{
												"box" : 												{
													"comment" : "",
													"id" : "obj-10",
													"index" : 1,
													"maxclass" : "outlet",
													"numinlets" : 1,
													"numoutlets" : 0,
													"patching_rect" : [ 49.999995813934333, 247.999994393325778, 30.0, 30.0 ]
												}

											}
 ],
										"lines" : [ 											{
												"patchline" : 												{
													"destination" : [ "obj-39", 0 ],
													"source" : [ "obj-38", 0 ]
												}

											}
, 											{
												"patchline" : 												{
													"destination" : [ "obj-40", 0 ],
													"source" : [ "obj-39", 0 ]
												}

											}
, 											{
												"patchline" : 												{
													"destination" : [ "obj-10", 0 ],
													"source" : [ "obj-40", 0 ]
												}

											}
, 											{
												"patchline" : 												{
													"destination" : [ "obj-38", 0 ],
													"source" : [ "obj-9", 0 ]
												}

											}
 ]
									}
,
									"patching_rect" : [ 207.421696186065674, 193.304906999999986, 73.0, 22.0 ],
									"saved_object_attributes" : 									{
										"description" : "",
										"digest" : "",
										"globalpatchername" : "",
										"tags" : ""
									}
,
									"text" : "p random_1"
								}

							}
, 							{
								"box" : 								{
									"id" : "obj-123",
									"maxclass" : "newobj",
									"numinlets" : 0,
									"numoutlets" : 1,
									"outlettype" : [ "" ],
									"patching_rect" : [ 433.635082721710205, 401.448144006729137, 158.0, 22.0 ],
									"text" : "r amount_to_read_ms_inst3"
								}

							}
, 							{
								"box" : 								{
									"id" : "obj-8",
									"maxclass" : "newobj",
									"numinlets" : 2,
									"numoutlets" : 2,
									"outlettype" : [ "float", "int" ],
									"patching_rect" : [ 207.0, 630.0, 74.0, 22.0 ],
									"text" : "maximum 0."
								}

							}
, 							{
								"box" : 								{
									"id" : "obj-7",
									"maxclass" : "newobj",
									"numinlets" : 6,
									"numoutlets" : 1,
									"outlettype" : [ "" ],
									"patching_rect" : [ 207.421696186065674, 253.0, 94.0, 22.0 ],
									"text" : "scale 0. 1. -1. 1."
								}

							}
, 							{
								"box" : 								{
									"id" : "obj-119",
									"maxclass" : "newobj",
									"numinlets" : 0,
									"numoutlets" : 1,
									"outlettype" : [ "" ],
									"patching_rect" : [ 235.921696186065674, 333.910979757308951, 191.0, 22.0 ],
									"text" : "r variation_starting_time_ms_inst3"
								}

							}
, 							{
								"box" : 								{
									"id" : "obj-6",
									"maxclass" : "newobj",
									"numinlets" : 2,
									"numoutlets" : 1,
									"outlettype" : [ "float" ],
									"patching_rect" : [ 207.421696186065674, 443.0, 47.5, 22.0 ],
									"text" : "+ 0."
								}

							}
, 							{
								"box" : 								{
									"id" : "obj-115",
									"maxclass" : "newobj",
									"numinlets" : 0,
									"numoutlets" : 1,
									"outlettype" : [ "" ],
									"patching_rect" : [ 235.921696186065674, 401.448144006729137, 162.0, 22.0 ],
									"text" : "r buffer_start_read_ms_inst3"
								}

							}
, 							{
								"box" : 								{
									"id" : "obj-5",
									"maxclass" : "newobj",
									"numinlets" : 1,
									"numoutlets" : 2,
									"outlettype" : [ "bang", "bang" ],
									"patching_rect" : [ 207.635082907775882, 147.0, 437.213386349578855, 22.0 ],
									"text" : "t b b"
								}

							}
, 							{
								"box" : 								{
									"comment" : "",
									"id" : "obj-4",
									"index" : 2,
									"maxclass" : "outlet",
									"numinlets" : 1,
									"numoutlets" : 0,
									"patching_rect" : [ 710.84846907128906, 812.090942000000041, 30.0, 30.0 ]
								}

							}
, 							{
								"box" : 								{
									"comment" : "",
									"id" : "obj-2",
									"index" : 1,
									"maxclass" : "inlet",
									"numinlets" : 0,
									"numoutlets" : 1,
									"outlettype" : [ "" ],
									"patching_rect" : [ 207.635082907775882, 92.0, 30.0, 30.0 ]
								}

							}
, 							{
								"box" : 								{
									"id" : "obj-1",
									"maxclass" : "newobj",
									"numinlets" : 0,
									"numoutlets" : 1,
									"outlettype" : [ "" ],
									"patching_rect" : [ 656.84846907128906, 401.448144006729137, 177.0, 22.0 ],
									"text" : "r max_grain_duration_ms_inst3"
								}

							}
, 							{
								"box" : 								{
									"id" : "obj-74",
									"maxclass" : "message",
									"numinlets" : 2,
									"numoutlets" : 1,
									"outlettype" : [ "" ],
									"patching_rect" : [ 207.421696186065674, 717.09094774723053, 59.0, 22.0 ],
									"text" : "$1, $2 $3"
								}

							}
, 							{
								"box" : 								{
									"id" : "obj-62",
									"linecount" : 2,
									"maxclass" : "comment",
									"numinlets" : 1,
									"numoutlets" : 0,
									"patching_rect" : [ 625.84846907128906, 582.0, 105.0, 33.0 ],
									"text" : "in how much time in ms"
								}

							}
, 							{
								"box" : 								{
									"id" : "obj-61",
									"linecount" : 2,
									"maxclass" : "comment",
									"numinlets" : 1,
									"numoutlets" : 0,
									"patching_rect" : [ 416.635082721710205, 583.0, 101.0, 33.0 ],
									"text" : "ending point in ms"
								}

							}
, 							{
								"box" : 								{
									"id" : "obj-60",
									"linecount" : 2,
									"maxclass" : "comment",
									"numinlets" : 1,
									"numoutlets" : 0,
									"patching_rect" : [ 207.421696186065674, 582.0, 101.0, 33.0 ],
									"text" : "starting point in ms"
								}

							}
, 							{
								"box" : 								{
									"id" : "obj-52",
									"maxclass" : "newobj",
									"numinlets" : 2,
									"numoutlets" : 1,
									"outlettype" : [ "float" ],
									"patching_rect" : [ 416.635082721710205, 624.0, 36.0, 22.0 ],
									"text" : "+ 50."
								}

							}
, 							{
								"box" : 								{
									"id" : "obj-51",
									"maxclass" : "newobj",
									"numinlets" : 3,
									"numoutlets" : 1,
									"outlettype" : [ "" ],
									"patching_rect" : [ 207.421696186065674, 675.0, 437.426773071289062, 22.0 ],
									"text" : "pack f f f"
								}

							}
, 							{
								"box" : 								{
									"id" : "obj-41",
									"maxclass" : "newobj",
									"numinlets" : 2,
									"numoutlets" : 1,
									"outlettype" : [ "float" ],
									"patching_rect" : [ 207.421696186065674, 368.918457870483394, 47.5, 22.0 ],
									"text" : "* 0."
								}

							}
, 							{
								"box" : 								{
									"id" : "obj-19",
									"linecount" : 3,
									"maxclass" : "comment",
									"numinlets" : 1,
									"numoutlets" : 0,
									"patching_rect" : [ 50.0, 704.09094774723053, 150.0, 47.0 ],
									"text" : "$1: starting point in ms\n$2: end point in ms\n$3: time to get there"
								}

							}
, 							{
								"box" : 								{
									"comment" : "",
									"id" : "obj-77",
									"index" : 1,
									"maxclass" : "outlet",
									"numinlets" : 1,
									"numoutlets" : 0,
									"patching_rect" : [ 207.42171125735473, 812.090942000000041, 30.0, 30.0 ]
								}

							}
 ],
						"lines" : [ 							{
								"patchline" : 								{
									"destination" : [ "obj-16", 1 ],
									"order" : 1,
									"source" : [ "obj-1", 0 ]
								}

							}
, 							{
								"patchline" : 								{
									"destination" : [ "obj-17", 1 ],
									"midpoints" : [ 666.34846907128906, 435.0, 709.999999813934323, 435.0 ],
									"order" : 0,
									"source" : [ "obj-1", 0 ]
								}

							}
, 							{
								"patchline" : 								{
									"destination" : [ "obj-7", 0 ],
									"source" : [ "obj-11", 0 ]
								}

							}
, 							{
								"patchline" : 								{
									"destination" : [ "obj-6", 1 ],
									"source" : [ "obj-115", 0 ]
								}

							}
, 							{
								"patchline" : 								{
									"destination" : [ "obj-41", 1 ],
									"source" : [ "obj-119", 0 ]
								}

							}
, 							{
								"patchline" : 								{
									"destination" : [ "obj-14", 0 ],
									"source" : [ "obj-12", 0 ]
								}

							}
, 							{
								"patchline" : 								{
									"destination" : [ "obj-52", 1 ],
									"source" : [ "obj-123", 0 ]
								}

							}
, 							{
								"patchline" : 								{
									"destination" : [ "obj-16", 0 ],
									"source" : [ "obj-13", 0 ]
								}

							}
, 							{
								"patchline" : 								{
									"destination" : [ "obj-13", 0 ],
									"source" : [ "obj-14", 0 ]
								}

							}
, 							{
								"patchline" : 								{
									"destination" : [ "obj-13", 1 ],
									"source" : [ "obj-15", 0 ]
								}

							}
, 							{
								"patchline" : 								{
									"destination" : [ "obj-17", 0 ],
									"source" : [ "obj-16", 0 ]
								}

							}
, 							{
								"patchline" : 								{
									"destination" : [ "obj-18", 0 ],
									"source" : [ "obj-17", 0 ]
								}

							}
, 							{
								"patchline" : 								{
									"destination" : [ "obj-4", 0 ],
									"order" : 0,
									"source" : [ "obj-18", 0 ]
								}

							}
, 							{
								"patchline" : 								{
									"destination" : [ "obj-51", 2 ],
									"order" : 1,
									"source" : [ "obj-18", 0 ]
								}

							}
, 							{
								"patchline" : 								{
									"destination" : [ "obj-5", 0 ],
									"source" : [ "obj-2", 0 ]
								}

							}
, 							{
								"patchline" : 								{
									"destination" : [ "obj-6", 0 ],
									"source" : [ "obj-41", 0 ]
								}

							}
, 							{
								"patchline" : 								{
									"destination" : [ "obj-11", 0 ],
									"source" : [ "obj-5", 0 ]
								}

							}
, 							{
								"patchline" : 								{
									"destination" : [ "obj-12", 0 ],
									"source" : [ "obj-5", 1 ]
								}

							}
, 							{
								"patchline" : 								{
									"destination" : [ "obj-74", 0 ],
									"source" : [ "obj-51", 0 ]
								}

							}
, 							{
								"patchline" : 								{
									"destination" : [ "obj-51", 1 ],
									"source" : [ "obj-52", 0 ]
								}

							}
, 							{
								"patchline" : 								{
									"destination" : [ "obj-52", 0 ],
									"order" : 0,
									"source" : [ "obj-6", 0 ]
								}

							}
, 							{
								"patchline" : 								{
									"destination" : [ "obj-8", 0 ],
									"order" : 1,
									"source" : [ "obj-6", 0 ]
								}

							}
, 							{
								"patchline" : 								{
									"destination" : [ "obj-41", 0 ],
									"source" : [ "obj-7", 0 ]
								}

							}
, 							{
								"patchline" : 								{
									"destination" : [ "obj-77", 0 ],
									"source" : [ "obj-74", 0 ]
								}

							}
, 							{
								"patchline" : 								{
									"destination" : [ "obj-51", 0 ],
									"source" : [ "obj-8", 0 ]
								}

							}
 ],
						"styles" : [ 							{
								"name" : "white",
								"default" : 								{
									"bgcolor" : [ 1.0, 1.0, 1.0, 1.0 ],
									"bgfillcolor" : 									{
										"color" : [ 1.0, 1.0, 1.0, 1.0 ],
										"color1" : [ 1.0, 1.0, 1.0, 1.0 ],
										"color2" : [ 0.2, 0.2, 0.2, 1.0 ],
										"type" : "color"
									}
,
									"color" : [ 0.258823529411765, 0.258823529411765, 0.258823529411765, 1.0 ],
									"elementcolor" : [ 0.592156862745098, 0.592156862745098, 0.592156862745098, 1.0 ],
									"selectioncolor" : [ 0.149019607843137, 0.149019607843137, 0.149019607843137, 1.0 ],
									"stripecolor" : [ 0.462745098039216, 0.462745098039216, 0.462745098039216, 1.0 ],
									"textcolor_inverse" : [ 0.223529411764706, 0.223529411764706, 0.223529411764706, 1.0 ]
								}
,
								"parentstyle" : "",
								"multi" : 0
							}
 ]
					}
,
					"patching_rect" : [ 717.994018644641415, 1102.050905032157971, 268.836858823944112, 22.0 ],
					"saved_object_attributes" : 					{
						"description" : "",
						"digest" : "",
						"globalpatchername" : "",
						"style" : "white",
						"tags" : ""
					}
,
					"text" : "p Grain_parameters_inst3"
				}

			}
, 			{
				"box" : 				{
					"id" : "obj-172",
					"maxclass" : "newobj",
					"numinlets" : 2,
					"numoutlets" : 1,
					"outlettype" : [ "multichannelsignal" ],
					"patching_rect" : [ 718.207405180285946, 1562.416770620346142, 40.0, 22.0 ],
					"text" : "mc.*~"
				}

			}
, 			{
				"box" : 				{
					"id" : "obj-173",
					"maxclass" : "meter~",
					"numinlets" : 1,
					"numoutlets" : 1,
					"outlettype" : [ "float" ],
					"patching_rect" : [ 978.359869570087085, 1445.874585552215649, 499.687482476234436, 313.091443061828613 ],
					"presentation" : 1,
					"presentation_rect" : [ 432.77146631479286, 86.896515426635688, 230.816514134407043, 161.237076044082642 ]
				}

			}
, 			{
				"box" : 				{
					"id" : "obj-174",
					"maxclass" : "newobj",
					"numinlets" : 2,
					"numoutlets" : 2,
					"outlettype" : [ "setvalue", "int" ],
					"patching_rect" : [ 717.994018644641415, 1198.237328510284442, 181.165427086997965, 22.0 ],
					"text" : "mc.target"
				}

			}
, 			{
				"box" : 				{
					"format" : 6,
					"id" : "obj-175",
					"maxclass" : "flonum",
					"numinlets" : 1,
					"numoutlets" : 2,
					"outlettype" : [ "", "bang" ],
					"parameter_enable" : 0,
					"patching_rect" : [ 838.994018644641415, 1445.874585552215649, 50.0, 22.0 ]
				}

			}
, 			{
				"box" : 				{
					"id" : "obj-176",
					"maxclass" : "newobj",
					"numinlets" : 1,
					"numoutlets" : 1,
					"outlettype" : [ "multichannelsignal" ],
					"patching_rect" : [ 838.994018644641415, 1476.190913524627831, 50.0, 22.0 ],
					"text" : "mc.sig~"
				}

			}
, 			{
				"box" : 				{
					"id" : "obj-177",
					"maxclass" : "newobj",
					"numinlets" : 2,
					"numoutlets" : 1,
					"outlettype" : [ "multichannelsignal" ],
					"patching_rect" : [ 717.994018644641415, 1516.967253417968777, 140.0, 22.0 ],
					"text" : "mc.stereo~ @autogain 1"
				}

			}
, 			{
				"box" : 				{
					"id" : "obj-178",
					"maxclass" : "newobj",
					"numinlets" : 2,
					"numoutlets" : 3,
					"outlettype" : [ "multichannelsignal", "", "" ],
					"patching_rect" : [ 717.994018644641415, 1245.075405879020764, 139.85365891456604, 22.0 ],
					"text" : "mc.line~ @chans 100"
				}

			}
, 			{
				"box" : 				{
					"id" : "obj-179",
					"maxclass" : "newobj",
					"numinlets" : 1,
					"numoutlets" : 3,
					"outlettype" : [ "multichannelsignal", "", "" ],
					"patching_rect" : [ 717.994018644641415, 1288.441137056350726, 166.0, 22.0 ],
					"text" : "mc.play~ grainproducer_inst3"
				}

			}
, 			{
				"box" : 				{
					"buffername" : "grainproducer_inst3",
					"id" : "obj-180",
					"maxclass" : "waveform~",
					"numinlets" : 5,
					"numoutlets" : 6,
					"outlettype" : [ "float", "float", "float", "float", "list", "" ],
					"patching_rect" : [ 1280.888844325542323, 612.080634674480621, 372.0, 130.0 ],
					"presentation" : 1,
					"presentation_rect" : [ 7.24857918913267, 86.896515426635688, 375.599560976028442, 161.237076044082642 ],
					"setmode" : 1
				}

			}
, 			{
				"box" : 				{
					"id" : "obj-181",
					"maxclass" : "button",
					"numinlets" : 1,
					"numoutlets" : 1,
					"outlettype" : [ "bang" ],
					"parameter_enable" : 0,
					"patching_rect" : [ 426.510977690219647, 673.077578158378742, 24.0, 24.0 ]
				}

			}
 ],
		"lines" : [ 			{
				"patchline" : 				{
					"destination" : [ "obj-4", 0 ],
					"source" : [ "obj-1", 0 ]
				}

			}
, 			{
				"patchline" : 				{
					"destination" : [ "obj-132", 0 ],
					"midpoints" : [ 606.29839301109314, 1084.902259702682386, 554.429797351360207, 1084.902259702682386 ],
					"source" : [ "obj-10", 0 ]
				}

			}
, 			{
				"patchline" : 				{
					"destination" : [ "obj-132", 0 ],
					"source" : [ "obj-113", 0 ]
				}

			}
, 			{
				"patchline" : 				{
					"destination" : [ "obj-126", 0 ],
					"source" : [ "obj-114", 0 ]
				}

			}
, 			{
				"patchline" : 				{
					"destination" : [ "obj-121", 0 ],
					"source" : [ "obj-115", 0 ]
				}

			}
, 			{
				"patchline" : 				{
					"destination" : [ "obj-162", 0 ],
					"source" : [ "obj-116", 0 ]
				}

			}
, 			{
				"patchline" : 				{
					"destination" : [ "obj-145", 0 ],
					"source" : [ "obj-117", 0 ]
				}

			}
, 			{
				"patchline" : 				{
					"destination" : [ "obj-10", 0 ],
					"source" : [ "obj-12", 0 ]
				}

			}
, 			{
				"patchline" : 				{
					"destination" : [ "obj-122", 0 ],
					"source" : [ "obj-121", 0 ]
				}

			}
, 			{
				"patchline" : 				{
					"destination" : [ "obj-124", 1 ],
					"source" : [ "obj-122", 1 ]
				}

			}
, 			{
				"patchline" : 				{
					"destination" : [ "obj-124", 0 ],
					"source" : [ "obj-122", 0 ]
				}

			}
, 			{
				"patchline" : 				{
					"destination" : [ "obj-123", 0 ],
					"source" : [ "obj-124", 0 ]
				}

			}
, 			{
				"patchline" : 				{
					"destination" : [ "obj-127", 0 ],
					"source" : [ "obj-126", 0 ]
				}

			}
, 			{
				"patchline" : 				{
					"destination" : [ "obj-14", 0 ],
					"source" : [ "obj-13", 0 ]
				}

			}
, 			{
				"patchline" : 				{
					"destination" : [ "obj-120", 0 ],
					"source" : [ "obj-132", 0 ]
				}

			}
, 			{
				"patchline" : 				{
					"destination" : [ "obj-180", 3 ],
					"midpoints" : [ 1290.388844325542323, 1047.592030605724631, 1246.747809841632716, 1047.592030605724631, 1246.747809841632716, 596.581276020458404, 1555.138844325542323, 596.581276020458404 ],
					"source" : [ "obj-133", 0 ]
				}

			}
, 			{
				"patchline" : 				{
					"destination" : [ "obj-129", 0 ],
					"order" : 1,
					"source" : [ "obj-135", 0 ]
				}

			}
, 			{
				"patchline" : 				{
					"destination" : [ "obj-133", 0 ],
					"order" : 2,
					"source" : [ "obj-135", 0 ]
				}

			}
, 			{
				"patchline" : 				{
					"destination" : [ "obj-180", 2 ],
					"midpoints" : [ 1290.388844325542323, 923.183426937511626, 1246.747809841632716, 923.183426937511626, 1246.747809841632716, 596.581276020458404, 1466.888844325542323, 596.581276020458404 ],
					"order" : 0,
					"source" : [ "obj-135", 0 ]
				}

			}
, 			{
				"patchline" : 				{
					"destination" : [ "obj-140", 4 ],
					"source" : [ "obj-138", 0 ]
				}

			}
, 			{
				"patchline" : 				{
					"destination" : [ "obj-65", 0 ],
					"source" : [ "obj-14", 0 ]
				}

			}
, 			{
				"patchline" : 				{
					"destination" : [ "obj-135", 0 ],
					"source" : [ "obj-140", 0 ]
				}

			}
, 			{
				"patchline" : 				{
					"destination" : [ "obj-140", 0 ],
					"source" : [ "obj-142", 0 ]
				}

			}
, 			{
				"patchline" : 				{
					"destination" : [ "obj-133", 1 ],
					"source" : [ "obj-143", 0 ]
				}

			}
, 			{
				"patchline" : 				{
					"destination" : [ "obj-172", 1 ],
					"midpoints" : [ 561.948325335979348, 1556.483121557235791, 748.707405180285946, 1556.483121557235791 ],
					"source" : [ "obj-144", 0 ]
				}

			}
, 			{
				"patchline" : 				{
					"destination" : [ "obj-153", 1 ],
					"source" : [ "obj-145", 0 ]
				}

			}
, 			{
				"patchline" : 				{
					"destination" : [ "obj-173", 0 ],
					"midpoints" : [ 727.494018644641415, 1430.001505060195996, 987.859869570087085, 1430.001505060195996 ],
					"order" : 0,
					"source" : [ "obj-146", 0 ]
				}

			}
, 			{
				"patchline" : 				{
					"destination" : [ "obj-177", 0 ],
					"midpoints" : [ 727.494018644641415, 1382.001505060195996, 727.494018644641415, 1382.001505060195996 ],
					"order" : 1,
					"source" : [ "obj-146", 0 ]
				}

			}
, 			{
				"patchline" : 				{
					"destination" : [ "obj-146", 1 ],
					"source" : [ "obj-147", 0 ]
				}

			}
, 			{
				"patchline" : 				{
					"destination" : [ "obj-40", 0 ],
					"source" : [ "obj-15", 0 ]
				}

			}
, 			{
				"patchline" : 				{
					"destination" : [ "obj-160", 0 ],
					"midpoints" : [ 772.753274649928585, 1038.709952170848737, 727.494018644641415, 1038.709952170848737 ],
					"source" : [ "obj-153", 0 ]
				}

			}
, 			{
				"patchline" : 				{
					"destination" : [ "obj-155", 0 ],
					"source" : [ "obj-154", 0 ]
				}

			}
, 			{
				"patchline" : 				{
					"destination" : [ "obj-156", 0 ],
					"source" : [ "obj-155", 0 ]
				}

			}
, 			{
				"patchline" : 				{
					"destination" : [ "obj-147", 0 ],
					"source" : [ "obj-156", 0 ]
				}

			}
, 			{
				"patchline" : 				{
					"destination" : [ "obj-160", 0 ],
					"source" : [ "obj-159", 0 ]
				}

			}
, 			{
				"patchline" : 				{
					"destination" : [ "obj-155", 1 ],
					"midpoints" : [ 889.494018644641415, 1087.803977055549694, 1098.184536383151681, 1087.803977055549694 ],
					"order" : 0,
					"source" : [ "obj-160", 1 ]
				}

			}
, 			{
				"patchline" : 				{
					"destination" : [ "obj-165", 0 ],
					"source" : [ "obj-160", 0 ]
				}

			}
, 			{
				"patchline" : 				{
					"destination" : [ "obj-174", 1 ],
					"order" : 1,
					"source" : [ "obj-160", 1 ]
				}

			}
, 			{
				"patchline" : 				{
					"destination" : [ "obj-124", 0 ],
					"order" : 0,
					"source" : [ "obj-162", 0 ]
				}

			}
, 			{
				"patchline" : 				{
					"destination" : [ "obj-164", 0 ],
					"order" : 1,
					"source" : [ "obj-162", 0 ]
				}

			}
, 			{
				"patchline" : 				{
					"destination" : [ "obj-154", 0 ],
					"source" : [ "obj-165", 1 ]
				}

			}
, 			{
				"patchline" : 				{
					"destination" : [ "obj-174", 0 ],
					"source" : [ "obj-165", 0 ]
				}

			}
, 			{
				"patchline" : 				{
					"destination" : [ "obj-46", 0 ],
					"source" : [ "obj-172", 0 ]
				}

			}
, 			{
				"patchline" : 				{
					"destination" : [ "obj-178", 0 ],
					"source" : [ "obj-174", 0 ]
				}

			}
, 			{
				"patchline" : 				{
					"destination" : [ "obj-176", 0 ],
					"source" : [ "obj-175", 0 ]
				}

			}
, 			{
				"patchline" : 				{
					"destination" : [ "obj-177", 1 ],
					"source" : [ "obj-176", 0 ]
				}

			}
, 			{
				"patchline" : 				{
					"destination" : [ "obj-172", 0 ],
					"source" : [ "obj-177", 0 ]
				}

			}
, 			{
				"patchline" : 				{
					"destination" : [ "obj-179", 0 ],
					"source" : [ "obj-178", 0 ]
				}

			}
, 			{
				"patchline" : 				{
					"destination" : [ "obj-146", 0 ],
					"source" : [ "obj-179", 0 ]
				}

			}
, 			{
				"patchline" : 				{
					"destination" : [ "obj-121", 0 ],
					"midpoints" : [ 709.81452992613174, 1085.685927314758374, 301.553770010471169, 1085.685927314758374 ],
					"order" : 4,
					"source" : [ "obj-18", 0 ]
				}

			}
, 			{
				"patchline" : 				{
					"destination" : [ "obj-126", 0 ],
					"midpoints" : [ 709.81452992613174, 1085.685927314758374, 414.681261837482168, 1085.685927314758374 ],
					"order" : 3,
					"source" : [ "obj-18", 0 ]
				}

			}
, 			{
				"patchline" : 				{
					"destination" : [ "obj-132", 0 ],
					"midpoints" : [ 709.81452992613174, 1085.685927314758374, 554.429797351360207, 1085.685927314758374 ],
					"order" : 2,
					"source" : [ "obj-18", 0 ]
				}

			}
, 			{
				"patchline" : 				{
					"destination" : [ "obj-145", 0 ],
					"midpoints" : [ 709.81452992613174, 955.862400455474926, 925.414247125934139, 955.862400455474926 ],
					"order" : 0,
					"source" : [ "obj-18", 0 ]
				}

			}
, 			{
				"patchline" : 				{
					"destination" : [ "obj-162", 0 ],
					"midpoints" : [ 709.81452992613174, 1085.685927314758374, 180.27918833494158, 1085.685927314758374 ],
					"order" : 5,
					"source" : [ "obj-18", 0 ]
				}

			}
, 			{
				"patchline" : 				{
					"destination" : [ "obj-175", 0 ],
					"midpoints" : [ 709.81452992613174, 1429.945186598301007, 848.494018644641415, 1429.945186598301007 ],
					"order" : 1,
					"source" : [ "obj-18", 0 ]
				}

			}
, 			{
				"patchline" : 				{
					"destination" : [ "obj-74", 0 ],
					"source" : [ "obj-181", 0 ]
				}

			}
, 			{
				"patchline" : 				{
					"destination" : [ "obj-24", 0 ],
					"midpoints" : [ 507.340053365230119, 573.343982882499745, 507.340053365230119, 573.343982882499745 ],
					"source" : [ "obj-20", 0 ]
				}

			}
, 			{
				"patchline" : 				{
					"destination" : [ "obj-38", 0 ],
					"source" : [ "obj-23", 0 ]
				}

			}
, 			{
				"patchline" : 				{
					"destination" : [ "obj-249", 0 ],
					"order" : 0,
					"source" : [ "obj-237", 0 ]
				}

			}
, 			{
				"patchline" : 				{
					"destination" : [ "obj-372", 0 ],
					"midpoints" : [ 1455.92222717841446, 314.047711117267568, 1370.551831637223358, 314.047711117267568 ],
					"order" : 1,
					"source" : [ "obj-237", 0 ]
				}

			}
, 			{
				"patchline" : 				{
					"destination" : [ "obj-77", 0 ],
					"order" : 0,
					"source" : [ "obj-24", 0 ]
				}

			}
, 			{
				"patchline" : 				{
					"destination" : [ "obj-9", 0 ],
					"midpoints" : [ 507.340053365230119, 629.881411404609821, 436.010977690219647, 629.881411404609821 ],
					"order" : 1,
					"source" : [ "obj-24", 0 ]
				}

			}
, 			{
				"patchline" : 				{
					"destination" : [ "obj-388", 0 ],
					"midpoints" : [ 1455.92222717841446, 424.754862838710892, 1400.92222717841446, 424.754862838710892 ],
					"order" : 1,
					"source" : [ "obj-249", 0 ]
				}

			}
, 			{
				"patchline" : 				{
					"destination" : [ "obj-390", 0 ],
					"order" : 0,
					"source" : [ "obj-249", 0 ]
				}

			}
, 			{
				"patchline" : 				{
					"destination" : [ "obj-281", 0 ],
					"source" : [ "obj-25", 0 ]
				}

			}
, 			{
				"patchline" : 				{
					"destination" : [ "obj-37", 0 ],
					"source" : [ "obj-26", 0 ]
				}

			}
, 			{
				"patchline" : 				{
					"destination" : [ "obj-142", 0 ],
					"midpoints" : [ 1247.178448274135462, 756.005902966907684, 1290.388844325542323, 756.005902966907684 ],
					"order" : 0,
					"source" : [ "obj-27", 0 ]
				}

			}
, 			{
				"patchline" : 				{
					"destination" : [ "obj-55", 1 ],
					"order" : 1,
					"source" : [ "obj-27", 0 ]
				}

			}
, 			{
				"patchline" : 				{
					"destination" : [ "obj-272", 0 ],
					"source" : [ "obj-271", 0 ]
				}

			}
, 			{
				"patchline" : 				{
					"destination" : [ "obj-65", 0 ],
					"midpoints" : [ 434.429962286948353, 294.148556172847748, 413.840053365230119, 294.148556172847748, 413.840053365230119, 162.148556172847748, 507.340053365230119, 162.148556172847748 ],
					"source" : [ "obj-272", 0 ]
				}

			}
, 			{
				"patchline" : 				{
					"destination" : [ "obj-175", 0 ],
					"source" : [ "obj-28", 0 ]
				}

			}
, 			{
				"patchline" : 				{
					"destination" : [ "obj-24", 0 ],
					"midpoints" : [ 607.662876134713088, 573.343982882499745, 507.340053365230119, 573.343982882499745 ],
					"source" : [ "obj-280", 0 ]
				}

			}
, 			{
				"patchline" : 				{
					"destination" : [ "obj-289", 0 ],
					"midpoints" : [ 1661.224384044011458, 215.604914672374775, 1499.92222717841446, 215.604914672374775 ],
					"order" : 1,
					"source" : [ "obj-281", 0 ]
				}

			}
, 			{
				"patchline" : 				{
					"destination" : [ "obj-386", 0 ],
					"midpoints" : [ 1661.224384044011458, 313.641951925754597, 1525.92222717841446, 313.641951925754597 ],
					"order" : 0,
					"source" : [ "obj-281", 0 ]
				}

			}
, 			{
				"patchline" : 				{
					"destination" : [ "obj-296", 0 ],
					"source" : [ "obj-284", 0 ]
				}

			}
, 			{
				"patchline" : 				{
					"destination" : [ "obj-237", 0 ],
					"source" : [ "obj-285", 0 ]
				}

			}
, 			{
				"patchline" : 				{
					"destination" : [ "obj-237", 1 ],
					"order" : 1,
					"source" : [ "obj-289", 0 ]
				}

			}
, 			{
				"patchline" : 				{
					"destination" : [ "obj-395", 0 ],
					"midpoints" : [ 1499.92222717841446, 265.921028621196797, 1528.815294419129486, 265.921028621196797 ],
					"order" : 0,
					"source" : [ "obj-289", 0 ]
				}

			}
, 			{
				"patchline" : 				{
					"destination" : [ "obj-35", 0 ],
					"source" : [ "obj-29", 0 ]
				}

			}
, 			{
				"patchline" : 				{
					"destination" : [ "obj-365", 0 ],
					"midpoints" : [ 1686.450373246669642, 1127.302666153362679, 1748.450373246669642, 1127.302666153362679 ],
					"source" : [ "obj-290", 0 ]
				}

			}
, 			{
				"patchline" : 				{
					"destination" : [ "obj-368", 0 ],
					"source" : [ "obj-292", 0 ]
				}

			}
, 			{
				"patchline" : 				{
					"destination" : [ "obj-377", 0 ],
					"midpoints" : [ 1805.950373246669642, 1196.868204392841562, 1861.700373246669642, 1196.868204392841562, 1861.700373246669642, 975.605046667507736, 1567.450373246669642, 975.605046667507736 ],
					"source" : [ "obj-292", 1 ]
				}

			}
, 			{
				"patchline" : 				{
					"destination" : [ "obj-24", 0 ],
					"midpoints" : [ 707.985698904195942, 573.343982882499745, 507.340053365230119, 573.343982882499745 ],
					"source" : [ "obj-294", 0 ]
				}

			}
, 			{
				"patchline" : 				{
					"destination" : [ "obj-299", 0 ],
					"source" : [ "obj-296", 0 ]
				}

			}
, 			{
				"patchline" : 				{
					"destination" : [ "obj-301", 0 ],
					"source" : [ "obj-296", 1 ]
				}

			}
, 			{
				"patchline" : 				{
					"destination" : [ "obj-5", 1 ],
					"source" : [ "obj-298", 0 ]
				}

			}
, 			{
				"patchline" : 				{
					"destination" : [ "obj-302", 0 ],
					"source" : [ "obj-299", 0 ]
				}

			}
, 			{
				"patchline" : 				{
					"destination" : [ "obj-18", 0 ],
					"source" : [ "obj-30", 0 ]
				}

			}
, 			{
				"patchline" : 				{
					"destination" : [ "obj-302", 0 ],
					"source" : [ "obj-301", 0 ]
				}

			}
, 			{
				"patchline" : 				{
					"destination" : [ "obj-20", 0 ],
					"source" : [ "obj-303", 0 ]
				}

			}
, 			{
				"patchline" : 				{
					"destination" : [ "obj-280", 0 ],
					"source" : [ "obj-303", 1 ]
				}

			}
, 			{
				"patchline" : 				{
					"destination" : [ "obj-294", 0 ],
					"source" : [ "obj-303", 2 ]
				}

			}
, 			{
				"patchline" : 				{
					"destination" : [ "obj-304", 0 ],
					"source" : [ "obj-303", 4 ]
				}

			}
, 			{
				"patchline" : 				{
					"destination" : [ "obj-305", 0 ],
					"source" : [ "obj-303", 5 ]
				}

			}
, 			{
				"patchline" : 				{
					"destination" : [ "obj-313", 0 ],
					"source" : [ "obj-303", 3 ]
				}

			}
, 			{
				"patchline" : 				{
					"destination" : [ "obj-24", 0 ],
					"midpoints" : [ 908.631344443161879, 573.343982882499745, 507.340053365230119, 573.343982882499745 ],
					"source" : [ "obj-304", 0 ]
				}

			}
, 			{
				"patchline" : 				{
					"destination" : [ "obj-24", 0 ],
					"midpoints" : [ 1008.954167212644961, 573.343982882499745, 507.340053365230119, 573.343982882499745 ],
					"source" : [ "obj-305", 0 ]
				}

			}
, 			{
				"patchline" : 				{
					"destination" : [ "obj-144", 0 ],
					"source" : [ "obj-308", 0 ]
				}

			}
, 			{
				"patchline" : 				{
					"destination" : [ "obj-25", 0 ],
					"source" : [ "obj-31", 0 ]
				}

			}
, 			{
				"patchline" : 				{
					"destination" : [ "obj-24", 0 ],
					"midpoints" : [ 808.308521673679024, 573.343982882499745, 507.340053365230119, 573.343982882499745 ],
					"source" : [ "obj-313", 0 ]
				}

			}
, 			{
				"patchline" : 				{
					"destination" : [ "obj-6", 0 ],
					"source" : [ "obj-33", 0 ]
				}

			}
, 			{
				"patchline" : 				{
					"destination" : [ "obj-36", 0 ],
					"source" : [ "obj-34", 0 ]
				}

			}
, 			{
				"patchline" : 				{
					"destination" : [ "obj-23", 0 ],
					"source" : [ "obj-35", 0 ]
				}

			}
, 			{
				"patchline" : 				{
					"destination" : [ "obj-362", 1 ],
					"midpoints" : [ 147.310313093661875, 452.059802556583463, 184.013509416580291, 452.059802556583463, 184.013509416580291, 536.059802556583463, 147.413757669925303, 536.059802556583463 ],
					"order" : 0,
					"source" : [ "obj-354", 1 ]
				}

			}
, 			{
				"patchline" : 				{
					"destination" : [ "obj-363", 0 ],
					"order" : 1,
					"source" : [ "obj-354", 1 ]
				}

			}
, 			{
				"patchline" : 				{
					"destination" : [ "obj-396", 0 ],
					"source" : [ "obj-36", 0 ]
				}

			}
, 			{
				"patchline" : 				{
					"destination" : [ "obj-417", 0 ],
					"source" : [ "obj-362", 0 ]
				}

			}
, 			{
				"patchline" : 				{
					"destination" : [ "obj-367", 1 ],
					"source" : [ "obj-363", 0 ]
				}

			}
, 			{
				"patchline" : 				{
					"destination" : [ "obj-292", 0 ],
					"source" : [ "obj-365", 2 ]
				}

			}
, 			{
				"patchline" : 				{
					"destination" : [ "obj-362", 0 ],
					"source" : [ "obj-367", 0 ]
				}

			}
, 			{
				"patchline" : 				{
					"destination" : [ "obj-47", 0 ],
					"source" : [ "obj-37", 0 ]
				}

			}
, 			{
				"patchline" : 				{
					"destination" : [ "obj-367", 0 ],
					"source" : [ "obj-373", 0 ]
				}

			}
, 			{
				"patchline" : 				{
					"destination" : [ "obj-365", 0 ],
					"source" : [ "obj-377", 3 ]
				}

			}
, 			{
				"patchline" : 				{
					"destination" : [ "obj-368", 1 ],
					"midpoints" : [ 1567.450373246669642, 1207.42083600943397, 1875.450373246669642, 1207.42083600943397 ],
					"source" : [ "obj-377", 0 ]
				}

			}
, 			{
				"patchline" : 				{
					"destination" : [ "obj-377", 0 ],
					"midpoints" : [ 1617.450373246669642, 976.19740327780562, 1567.450373246669642, 976.19740327780562 ],
					"source" : [ "obj-378", 0 ]
				}

			}
, 			{
				"patchline" : 				{
					"destination" : [ "obj-39", 0 ],
					"source" : [ "obj-38", 0 ]
				}

			}
, 			{
				"patchline" : 				{
					"destination" : [ "obj-27", 1 ],
					"source" : [ "obj-380", 0 ]
				}

			}
, 			{
				"patchline" : 				{
					"destination" : [ "obj-380", 1 ],
					"order" : 0,
					"source" : [ "obj-386", 0 ]
				}

			}
, 			{
				"patchline" : 				{
					"destination" : [ "obj-391", 0 ],
					"order" : 1,
					"source" : [ "obj-386", 0 ]
				}

			}
, 			{
				"patchline" : 				{
					"destination" : [ "obj-380", 0 ],
					"order" : 1,
					"source" : [ "obj-388", 0 ]
				}

			}
, 			{
				"patchline" : 				{
					"destination" : [ "obj-5", 0 ],
					"midpoints" : [ 1400.92222717841446, 479.601005855526068, 1554.666006082693684, 479.601005855526068 ],
					"order" : 0,
					"source" : [ "obj-388", 0 ]
				}

			}
, 			{
				"patchline" : 				{
					"destination" : [ "obj-27", 0 ],
					"source" : [ "obj-39", 0 ]
				}

			}
, 			{
				"patchline" : 				{
					"destination" : [ "obj-249", 1 ],
					"source" : [ "obj-391", 0 ]
				}

			}
, 			{
				"patchline" : 				{
					"destination" : [ "obj-162", 0 ],
					"midpoints" : [ 51.103416907786936, 1086.632088167667462, 180.27918833494158, 1086.632088167667462 ],
					"source" : [ "obj-392", 0 ]
				}

			}
, 			{
				"patchline" : 				{
					"destination" : [ "obj-392", 0 ],
					"source" : [ "obj-393", 0 ]
				}

			}
, 			{
				"patchline" : 				{
					"destination" : [ "obj-145", 0 ],
					"midpoints" : [ 1000.184536383151681, 956.025952441692425, 925.414247125934139, 956.025952441692425 ],
					"source" : [ "obj-394", 0 ]
				}

			}
, 			{
				"patchline" : 				{
					"destination" : [ "obj-377", 0 ],
					"source" : [ "obj-396", 0 ]
				}

			}
, 			{
				"patchline" : 				{
					"destination" : [ "obj-398", 0 ],
					"midpoints" : [ 1571.450373246669642, 932.302666153362566, 1818.713533833026759, 932.302666153362566 ],
					"source" : [ "obj-396", 1 ]
				}

			}
, 			{
				"patchline" : 				{
					"destination" : [ "obj-365", 0 ],
					"midpoints" : [ 1818.713533833026759, 1127.776350702694344, 1748.450373246669642, 1127.776350702694344 ],
					"source" : [ "obj-398", 0 ]
				}

			}
, 			{
				"patchline" : 				{
					"destination" : [ "obj-11", 0 ],
					"source" : [ "obj-4", 4 ]
				}

			}
, 			{
				"patchline" : 				{
					"destination" : [ "obj-19", 0 ],
					"source" : [ "obj-4", 5 ]
				}

			}
, 			{
				"patchline" : 				{
					"destination" : [ "obj-2", 0 ],
					"source" : [ "obj-4", 6 ]
				}

			}
, 			{
				"patchline" : 				{
					"destination" : [ "obj-21", 0 ],
					"source" : [ "obj-4", 2 ]
				}

			}
, 			{
				"patchline" : 				{
					"destination" : [ "obj-3", 0 ],
					"source" : [ "obj-4", 0 ]
				}

			}
, 			{
				"patchline" : 				{
					"destination" : [ "obj-7", 0 ],
					"source" : [ "obj-4", 1 ]
				}

			}
, 			{
				"patchline" : 				{
					"destination" : [ "obj-8", 0 ],
					"source" : [ "obj-4", 3 ]
				}

			}
, 			{
				"patchline" : 				{
					"destination" : [ "obj-41", 0 ],
					"source" : [ "obj-40", 0 ]
				}

			}
, 			{
				"patchline" : 				{
					"destination" : [ "obj-285", 0 ],
					"source" : [ "obj-41", 0 ]
				}

			}
, 			{
				"patchline" : 				{
					"destination" : [ "obj-27", 3 ],
					"source" : [ "obj-413", 0 ]
				}

			}
, 			{
				"patchline" : 				{
					"destination" : [ "obj-413", 0 ],
					"source" : [ "obj-418", 0 ]
				}

			}
, 			{
				"patchline" : 				{
					"destination" : [ "obj-15", 0 ],
					"source" : [ "obj-42", 0 ]
				}

			}
, 			{
				"patchline" : 				{
					"destination" : [ "obj-48", 0 ],
					"source" : [ "obj-43", 0 ]
				}

			}
, 			{
				"patchline" : 				{
					"destination" : [ "obj-51", 0 ],
					"source" : [ "obj-44", 0 ]
				}

			}
, 			{
				"patchline" : 				{
					"destination" : [ "obj-354", 0 ],
					"source" : [ "obj-45", 0 ]
				}

			}
, 			{
				"patchline" : 				{
					"destination" : [ "obj-44", 0 ],
					"source" : [ "obj-47", 0 ]
				}

			}
, 			{
				"patchline" : 				{
					"destination" : [ "obj-47", 0 ],
					"source" : [ "obj-48", 0 ]
				}

			}
, 			{
				"patchline" : 				{
					"destination" : [ "obj-27", 2 ],
					"source" : [ "obj-5", 0 ]
				}

			}
, 			{
				"patchline" : 				{
					"destination" : [ "obj-153", 0 ],
					"source" : [ "obj-51", 0 ]
				}

			}
, 			{
				"patchline" : 				{
					"destination" : [ "obj-144", 0 ],
					"source" : [ "obj-52", 0 ]
				}

			}
, 			{
				"patchline" : 				{
					"destination" : [ "obj-162", 0 ],
					"midpoints" : [ 229.358160614967346, 1086.0, 180.27918833494158, 1086.0 ],
					"source" : [ "obj-56", 0 ]
				}

			}
, 			{
				"patchline" : 				{
					"destination" : [ "obj-145", 0 ],
					"midpoints" : [ 977.330877468585527, 951.0, 925.414247125934139, 951.0 ],
					"source" : [ "obj-57", 0 ]
				}

			}
, 			{
				"patchline" : 				{
					"destination" : [ "obj-40", 0 ],
					"source" : [ "obj-6", 0 ]
				}

			}
, 			{
				"patchline" : 				{
					"destination" : [ "obj-271", 0 ],
					"midpoints" : [ 507.340053365230119, 226.148556172847748, 434.429962286948353, 226.148556172847748 ],
					"order" : 2,
					"source" : [ "obj-65", 0 ]
				}

			}
, 			{
				"patchline" : 				{
					"destination" : [ "obj-284", 0 ],
					"midpoints" : [ 507.340053365230119, 243.345118196010731, 657.315724427700275, 243.345118196010731 ],
					"order" : 0,
					"source" : [ "obj-65", 0 ]
				}

			}
, 			{
				"patchline" : 				{
					"destination" : [ "obj-303", 0 ],
					"order" : 1,
					"source" : [ "obj-65", 0 ]
				}

			}
, 			{
				"patchline" : 				{
					"destination" : [ "obj-66", 0 ],
					"source" : [ "obj-74", 6 ]
				}

			}
, 			{
				"patchline" : 				{
					"destination" : [ "obj-181", 0 ],
					"source" : [ "obj-9", 0 ]
				}

			}
 ],
		"parameters" : 		{
			"obj-113" : [ "live.dial[12]", "live.dial", 0 ],
			"obj-114" : [ "live.dial[11]", "live.dial", 0 ],
			"obj-115" : [ "live.dial[10]", "live.dial", 0 ],
			"obj-116" : [ "live.dial[9]", "live.dial", 0 ],
			"obj-117" : [ "live.dial[7]", "live.dial[4]", 0 ],
			"obj-142" : [ "slider", "slider", 0 ],
			"obj-144" : [ "slider[1]", "slider[1]", 0 ],
			"parameterbanks" : 			{
				"0" : 				{
					"index" : 0,
					"name" : "",
					"parameters" : [ "-", "-", "-", "-", "-", "-", "-", "-" ]
				}

			}
,
			"inherited_shortname" : 1
		}
,
		"dependency_cache" : [  ],
		"autosave" : 0,
		"styles" : [ 			{
				"name" : "white",
				"default" : 				{
					"bgcolor" : [ 1.0, 1.0, 1.0, 1.0 ],
					"bgfillcolor" : 					{
						"color" : [ 1.0, 1.0, 1.0, 1.0 ],
						"color1" : [ 1.0, 1.0, 1.0, 1.0 ],
						"color2" : [ 0.2, 0.2, 0.2, 1.0 ],
						"type" : "color"
					}
,
					"color" : [ 0.258823529411765, 0.258823529411765, 0.258823529411765, 1.0 ],
					"elementcolor" : [ 0.592156862745098, 0.592156862745098, 0.592156862745098, 1.0 ],
					"selectioncolor" : [ 0.149019607843137, 0.149019607843137, 0.149019607843137, 1.0 ],
					"stripecolor" : [ 0.462745098039216, 0.462745098039216, 0.462745098039216, 1.0 ],
					"textcolor_inverse" : [ 0.223529411764706, 0.223529411764706, 0.223529411764706, 1.0 ]
				}
,
				"parentstyle" : "",
				"multi" : 0
			}
 ]
	}

}
